<svg id="ico-categories" xmlns="http://www.w3.org/2000/svg" width="23" height="32" viewBox="0 0 23 32" fill="none">
    <path
        d="M7.04864 14.533C5.9106 14.533 5.70991 20.1886 4.63857 20.1886C4.03591 20.1886 3.83521 18.3374 3.83521 15.3408C3.83521 13.3885 6.11129 9.6853 11.4697 9.6853C16.8281 9.6853 19.1048 13.3884 19.1048 15.3408C19.1048 18.3374 18.9035 20.1886 18.3008 20.1886C17.2295 20.1886 17.0955 14.9373 16.2916 14.9373C15.3867 14.9373 15.074 15.3134 11.4697 15.3395V15.3408C9.2261 15.3408 7.9535 14.533 7.04864 14.533Z"
        stroke="#3D3D3D" stroke-miterlimit="10" stroke-linecap="round" stroke-linejoin="round" />
    <path
        d="M18.3013 20.1884C18.5088 20.1884 19.5067 19.2462 19.5067 21.4005C19.5067 23.555 18.502 25.1036 17.4974 24.2285C17.4974 27.6286 15.8783 28.4996 15.2112 29.4408C13.72 31.0403 13.7138 31.5 11.4696 31.5C9.22605 31.5 9.21882 31.0403 7.72864 29.4408C7.06099 28.4996 5.44187 27.6286 5.44187 24.2285C4.43725 25.1036 3.43262 23.5549 3.43262 21.4005C3.43262 19.2463 4.43048 20.1884 4.63795 20.1884"
        stroke="#3D3D3D" stroke-miterlimit="10" stroke-linecap="round" stroke-linejoin="round" />
    <path d="M15.3507 29.2593C15.3507 29.2593 15.3037 30.5408 16.2583 31.5001" stroke="#3D3D3D"
        stroke-miterlimit="10" stroke-linecap="round" stroke-linejoin="round" />
    <path d="M7.58795 29.2593C7.58795 29.2593 7.63502 30.5408 6.68091 31.5001" stroke="#3D3D3D"
        stroke-miterlimit="10" stroke-linecap="round" stroke-linejoin="round" />
    <path d="M11.4694 0.5L10.3213 3.94444H12.6176L11.4694 7.38888" stroke="#3D3D3D"
        stroke-miterlimit="10" stroke-linecap="round" stroke-linejoin="round" />
    <path d="M21.8028 2.79626L18.9325 5.66663L21.2288 6.81478L18.3584 9.11107" stroke="#3D3D3D"
        stroke-miterlimit="10" stroke-linecap="round" stroke-linejoin="round" />
    <path d="M5.72882 9.11107L4.58067 5.66663L2.28438 6.81478L1.13623 2.79626" stroke="#3D3D3D"
        stroke-miterlimit="10" stroke-linecap="round" stroke-linejoin="round" />
</svg>