<svg xmlns="http://www.w3.org/2000/svg" width="29" height="28" viewBox="0 0 29 28" fill="none">
    <path d="M22.1626 10.6743V1H3.41846V6.44186" stroke="#3D3D3D" stroke-miterlimit="10"
        stroke-linecap="round" stroke-linejoin="round" />
    <path d="M12.4884 8.25586H1V17.3256H12.4884V8.25586Z" stroke="#3D3D3D" stroke-miterlimit="10"
        stroke-linecap="round" stroke-linejoin="round" />
    <path d="M14.907 8.25586H19.7442" stroke="#3D3D3D" stroke-miterlimit="10" stroke-linecap="round"
        stroke-linejoin="round" />
    <path d="M14.907 10.6743H19.7442" stroke="#3D3D3D" stroke-miterlimit="10" stroke-linecap="round"
        stroke-linejoin="round" />
    <path d="M6.44189 19.7441H13.0931" stroke="#3D3D3D" stroke-miterlimit="10"
        stroke-linecap="round" stroke-linejoin="round" />
    <path d="M6.44189 22.1628H10.6745" stroke="#3D3D3D" stroke-miterlimit="10"
        stroke-linecap="round" stroke-linejoin="round" />
    <path d="M14.907 13.093H17.9302" stroke="#3D3D3D" stroke-miterlimit="10" stroke-linecap="round"
        stroke-linejoin="round" />
    <path d="M4.02326 19.7441H1V22.7674H4.02326V19.7441Z" stroke="#3D3D3D" stroke-miterlimit="10"
        stroke-linecap="round" stroke-linejoin="round" />
    <path d="M3.41846 25.1861V27H22.1626V20.3489" stroke="#3D3D3D" stroke-miterlimit="10"
        stroke-linecap="round" stroke-linejoin="round" />
    <path d="M3.41846 4.62793H22.1626" stroke="#3D3D3D" stroke-miterlimit="10"
        stroke-linecap="round" stroke-linejoin="round" />
    <path
        d="M15.7893 19.6266L14.4639 23.0899L17.9271 21.7644L27.8708 11.8207C28.225 11.4664 28.225 10.8921 27.8708 10.538L27.0157 9.68292C26.6615 9.32867 26.0873 9.32867 25.7331 9.68292L15.7893 19.6266Z"
        stroke="#3D3D3D" stroke-miterlimit="10" stroke-linecap="round" stroke-linejoin="round" />
    <path d="M26.3743 13.3169L24.2366 11.1792" stroke="#3D3D3D" stroke-miterlimit="10"
        stroke-linecap="round" stroke-linejoin="round" />
    <path d="M5.83716 2.81396H6.44181" stroke="#3D3D3D" stroke-miterlimit="10"
        stroke-linecap="round" stroke-linejoin="round" />
    <path d="M8.86035 2.81396H9.465" stroke="#3D3D3D" stroke-miterlimit="10" stroke-linecap="round"
        stroke-linejoin="round" />
</svg>