<svg id="ico-categories" xmlns="http://www.w3.org/2000/svg" width="28" height="30" viewBox="0 0 28 30" fill="none">
    <path
        d="M10.7229 7.06818L10.456 4.68169L10.4538 4.68352C10.4376 4.54378 10.4324 4.40426 10.4324 4.25926C10.4324 2.18082 12.1132 0.5 14.1916 0.5C16.2701 0.5 17.9509 2.18082 17.9509 4.25926C17.9509 4.40426 17.9456 4.54378 17.9294 4.68352L17.9273 4.68169L17.6604 7.06818M10.7229 7.06818C10.9175 8.81151 12.3964 10.1667 14.1916 10.1667C15.9868 10.1667 17.4657 8.81151 17.6604 7.06818M10.7229 7.06818C10.7082 6.9394 10.7009 6.80857 10.7009 6.67593M17.6604 7.06818L17.6824 6.67593C17.6824 6.80857 17.6751 6.9395 17.6604 7.06818Z"
        stroke="#424242" stroke-miterlimit="10" stroke-linecap="round" stroke-linejoin="round" />
    <path
        d="M16.9465 8.81885C20.4269 9.52215 22.7842 11.5415 22.7842 14.0173C22.7842 14.5705 22.7197 15.4996 22.5692 16.5844"
        stroke="#424242" stroke-miterlimit="10" stroke-linecap="round" stroke-linejoin="round" />
    <path
        d="M9.4118 21.3477C8.02098 20.4457 6.87194 19.5863 6.26509 19.0493C6.15757 18.9525 6.07153 18.872 6.00183 18.8022C5.36254 18.1631 5.06201 17.5186 5.06201 16.9441C5.06201 16.4178 5.30904 15.945 5.6955 15.6067C6.11449 15.2309 6.71082 15 7.34442 15C9.10601 15.0215 12.6073 17.1642 14.5084 18.4154"
        stroke="#424242" stroke-miterlimit="10" stroke-linecap="round" stroke-linejoin="round" />
    <path
        d="M14.4653 24.0707C14.4653 24.0707 14.4653 24.0759 14.4706 24.0707C15.7435 24.597 16.9575 24.9352 17.9508 24.9352C19.8142 24.9352 21.0173 22.8138 21.7583 20.3918"
        stroke="#424242" stroke-miterlimit="10" stroke-linecap="round" stroke-linejoin="round" />
    <path
        d="M9.41173 21.3477C10.9048 20.4026 12.72 19.3393 14.5083 18.4155C17.043 17.1158 19.5352 16.0956 21.0388 16.0741C21.6188 16.0741 22.1611 16.2621 22.5691 16.5844C23.0259 16.9335 23.3212 17.4382 23.3212 18.0183C23.3212 18.5928 23.0207 19.2374 22.3814 19.8764C22.2366 20.0214 22.0268 20.1932 21.7583 20.392C20.3355 21.4286 17.3172 23.0717 14.4705 24.0707C14.4652 24.0759 14.4652 24.0707 14.4652 24.0707C12.9936 24.5915 11.5708 24.9352 10.4322 24.9352C8.22476 24.9352 6.94671 21.9655 6.26489 19.0493"
        stroke="#424242" stroke-miterlimit="10" stroke-linecap="round" stroke-linejoin="round" />
    <path
        d="M5.69532 15.6068C5.62562 14.9462 5.59888 14.3984 5.59888 14.0172C5.59888 11.5415 7.95625 9.52204 11.4366 8.81885"
        stroke="#424242" stroke-miterlimit="10" stroke-linecap="round" stroke-linejoin="round" />
    <path d="M18.4879 14.463C18.4879 14.463 18.1313 16.2755 17.7751 16.9133" stroke="#424242"
        stroke-miterlimit="10" stroke-linecap="round" stroke-linejoin="round" />
    <path d="M6.6731 29.5V20.5369" stroke="#424242" stroke-miterlimit="10" stroke-linecap="round"
        stroke-linejoin="round" />
    <path d="M20.636 29.5V23.0341" stroke="#424242" stroke-miterlimit="10" stroke-linecap="round"
        stroke-linejoin="round" />
    <path
        d="M1.8397 8.55554C1.8397 9.62854 0.765625 9.62854 0.765625 10.7013C0.765625 11.7762 1.8397 11.7762 1.8397 12.8508C1.8397 13.9254 0.765625 13.9254 0.765625 15"
        stroke="#424242" stroke-miterlimit="10" stroke-linecap="round" stroke-linejoin="round" />
    <path
        d="M25.4692 14.463C25.4692 13.39 26.5433 13.39 26.5433 12.3172C26.5433 11.2424 25.4692 11.2424 25.4692 10.1678C25.4692 9.09317 26.5433 9.09317 26.5433 8.01855"
        stroke="#424242" stroke-miterlimit="10" stroke-linecap="round" stroke-linejoin="round" />
    <path
        d="M26.5433 18.2222C26.5433 19.2952 25.4692 19.2952 25.4692 20.3682C25.4692 21.4415 26.5433 21.4415 26.5433 22.5147C26.5433 23.5899 25.4692 23.5899 25.4692 24.6647C25.4692 25.7395 26.5433 25.7395 26.5433 26.8147"
        stroke="#424242" stroke-miterlimit="10" stroke-linecap="round" stroke-linejoin="round" />
    <path
        d="M2.37681 20.3704C2.37681 21.4434 1.30273 21.4434 1.30273 22.5164C1.30273 23.5897 2.37681 23.5897 2.37681 24.6629C2.37681 25.738 1.30273 25.738 1.30273 26.8129C1.30273 27.8877 2.37681 27.8877 2.37681 28.9628"
        stroke="#424242" stroke-miterlimit="10" stroke-linecap="round" stroke-linejoin="round" />
</svg>