<svg width="311" height="62" viewBox="0 0 311 62" fill="none" xmlns="http://www.w3.org/2000/svg">
    <path
        d="M27.3935 0.907227H43.6714V49.4419H32.5548V32.4745C32.5548 30.1069 32.5548 26.5556 32.9518 21.4259C32.9518 16.2963 33.3488 13.1395 33.3488 11.5612L26.2024 49.4419H18.2619L11.1155 11.5612C11.5126 18.6638 11.9096 25.3719 11.9096 32.4745V49.4419H0.792969V0.907227H17.0709L21.0411 20.6368C21.4381 22.2151 21.8352 24.9773 22.2322 28.9232C22.6292 32.8691 23.0262 35.2366 23.0262 36.0258C23.0262 35.2366 23.4232 32.8691 23.8203 28.5286C24.2173 24.5827 24.6143 21.8205 24.6143 20.6368L28.5845 0.907227H27.3935Z"
        fill="#AC1B46" />
    <path
        d="M51.2148 12.7441H60.7434V28.9224L59.5523 36.025V36.4196L68.2868 12.7441H78.6094V49.0465H69.0808V33.2629L70.2719 25.7656V25.371L61.1404 49.0465H51.2148V12.7441Z"
        fill="#AC1B46" />
    <path d="M85.3574 49.0465V12.7441H108.385V21.0305H95.68V49.0465H85.3574Z" fill="#AC1B46" />
    <path
        d="M123.473 24.583V37.6045C123.473 40.3666 124.664 41.945 126.649 41.945C128.634 41.945 129.825 40.3666 129.825 37.6045V24.583C129.825 21.8208 128.634 20.2425 126.649 20.2425C124.664 20.2425 123.473 21.8208 123.473 24.583ZM123.473 45.8909V61.2799H113.15V12.7452H122.282V17.0857C123.473 15.5074 124.664 13.929 126.252 13.1398C127.84 12.3506 129.428 11.9561 131.016 11.9561C133.796 11.9561 135.781 13.1398 137.369 15.1128C138.957 17.0857 139.751 19.8479 139.751 23.3992V39.972C139.751 41.945 139.354 43.9179 138.56 45.4963C137.766 47.0746 136.575 48.2584 135.384 49.0476C134.193 49.8368 132.604 50.2314 131.016 50.2314C128.237 50.2314 125.855 48.653 123.473 45.8909Z"
        fill="#AC1B46" />
    <path
        d="M154.838 32.0802V37.6045C154.838 39.1828 155.235 40.3666 155.632 41.1558C156.029 41.945 156.823 42.3396 158.014 42.3396C160.396 42.3396 161.19 40.7612 161.19 37.6045V35.6315H171.116V38.3936C171.116 42.3396 169.925 45.4963 167.145 47.4692C164.763 49.4422 161.587 50.2314 158.014 50.2314C154.441 50.2314 151.264 49.4422 148.882 47.4692C146.103 45.4963 144.912 42.7341 144.912 38.3936V23.7938C144.912 21.0316 145.706 19.0587 146.897 17.0857C148.088 15.5074 149.676 13.929 151.661 13.1398C153.647 12.3506 155.632 11.9561 158.014 11.9561C161.587 11.9561 164.763 12.7452 167.145 14.7182C169.925 16.6911 171.116 19.4533 171.116 23.7938V32.4748H154.838V32.0802ZM154.838 25.3721H161.587V24.1884C161.587 22.2154 161.19 21.0316 160.793 20.2425C160.396 19.4533 159.602 19.0587 158.014 19.0587C156.823 19.0587 156.029 19.4533 155.632 20.2425C155.235 21.0316 154.838 22.2154 154.838 24.1884V25.3721Z"
        fill="#AC1B46" />
    <path
        d="M187.791 26.5548H193.35V12.7441H203.672V49.0465H193.35V34.4466H187.791V49.0465H177.469V12.7441H187.791V26.5548Z"
        fill="#AC1B46" />
    <path
        d="M210.818 12.7441H220.347V28.9224L219.156 36.025V36.4196L227.89 12.7441H238.213V49.0465H228.684V33.2629L229.875 25.7656V25.371L220.744 49.0465H210.818V12.7441Z"
        fill="#AC1B46" />
    <path
        d="M242.976 12.7441H253.298L255.68 29.317L256.474 41.9439L257.666 29.317L260.048 12.7441H269.973L262.033 51.414C261.636 53.7816 260.842 55.3599 259.651 56.9383C258.46 58.1221 257.269 59.3059 255.68 59.7004C254.092 60.4896 252.504 60.4896 250.122 60.4896C248.137 60.4896 246.549 60.4896 245.755 60.095V52.5978C246.152 52.5978 246.946 52.5978 247.74 52.5978C249.328 52.5978 250.122 51.8086 250.122 50.6249C250.122 50.2303 250.122 48.6519 249.725 47.0735C249.328 45.1006 248.931 42.3384 248.137 39.1817C247.343 35.6304 246.549 31.6845 245.358 26.9494C244.167 22.2143 243.373 17.8738 242.182 12.7442L242.976 12.7441Z"
        fill="#AC1B46" />
    <path
        d="M275.135 12.7449V49.0473H284.664V32.8691C284.664 32.4745 284.664 30.8961 284.267 28.134C283.87 25.3718 283.87 23.0043 283.473 20.6367L290.222 48.6527H294.986L302.133 20.6367C301.339 27.3448 300.544 31.2907 300.544 32.4745V48.6527H310.073V12.3503H297.368L293.795 26.9502C293.592 28.3013 293.001 31.6853 292.604 37.9987C292.604 36.0258 292.207 34.0528 291.81 31.6853C291.413 29.3177 291.172 28.134 291.016 27.3448L287.443 12.7449H274.738H275.135Z"
        fill="#AC1B46" />
</svg>
    