<svg width="665" height="182" viewBox="0 0 665 182" fill="none" xmlns="http://www.w3.org/2000/svg">
    <path
        d="M379.728 56.5713C374.752 56.6671 369.778 56.6671 364.789 56.5713C363.483 56.5568 362.865 57.1407 362.219 58.1491C358.412 64.0266 354.577 69.8769 350.716 75.7137C349.191 78.046 347.623 80.3642 345.919 82.9021C345.15 81.7708 344.545 80.954 343.995 80.1178C339.239 72.8741 334.471 65.6725 329.798 58.3823C328.946 57.058 328.059 56.5369 326.479 56.5716C321.772 56.6814 317.064 56.6814 312.357 56.5716C310.667 56.5235 310.207 56.9962 310.207 58.7187C310.268 77.8752 310.268 97.0321 310.207 116.195C310.207 117.979 310.839 118.363 312.454 118.308C315.669 118.212 318.913 118.143 322.135 118.321C324.568 118.472 325.394 117.882 325.359 115.236C325.214 101.703 325.297 88.1701 325.297 74.6448C325.454 74.5619 325.64 74.4869 325.819 74.4042C331.172 82.0867 336.56 89.7478 341.878 97.429C344.325 100.948 347.595 100.948 350.015 97.3332C350.702 96.3393 351.362 95.3441 352.048 94.3707C356.639 87.779 361.256 81.1872 366.355 73.8825V77.148C366.355 90.0489 366.396 102.93 366.315 115.838C366.287 117.732 366.795 118.404 368.775 118.321C372.362 118.185 375.963 118.198 379.549 118.308C381.295 118.363 381.735 117.787 381.735 116.113C381.666 96.9565 381.68 77.7997 381.735 58.6357C381.735 57.1059 381.364 56.5366 379.728 56.5713Z"
        fill="#3D3D3D" />
    <path
        d="M535.247 56.5848C530.546 56.6475 525.847 56.7083 521.132 56.5517C519.304 56.5095 518.369 57.1687 517.422 58.6495C512.267 66.6958 506.989 74.6577 501.616 82.8899C501.026 82.1002 500.585 81.5453 500.173 80.9484C495.226 73.4107 490.251 65.9064 485.344 58.3208C484.561 57.121 483.791 56.5372 482.265 56.572C477.483 56.6817 472.687 56.6678 467.876 56.5848C466.364 56.5517 465.814 56.9355 465.814 58.5611C465.883 77.8135 465.883 97.0455 465.814 116.32C465.814 117.952 466.405 118.363 467.904 118.309C471.312 118.226 474.748 118.116 478.156 118.336C480.561 118.5 480.987 117.595 480.96 115.387C480.85 102.492 480.905 89.605 480.932 76.7095C480.932 75.9694 480.492 75.0842 481.455 74.3569C486.953 82.2715 492.393 90.1248 497.836 98.0134C499.624 100.612 503.293 100.682 505.038 98.1511C509.506 91.717 513.97 85.2906 518.452 78.87C519.468 77.4026 520.499 75.9694 521.985 73.905V77.4297C521.985 90.2351 522.026 103.041 521.942 115.839C521.915 117.774 522.438 118.404 524.404 118.322C528.003 118.171 531.606 118.239 535.191 118.309C536.567 118.322 537.185 117.98 537.185 116.47C537.144 97.1148 537.144 77.7658 537.185 58.4166C537.185 56.9152 536.663 56.5719 535.247 56.5848Z"
        fill="#3D3D3D" />
    <path
        d="M268.034 52.4277C248.807 52.4625 233.311 68.0391 233.352 87.2914C233.386 106.407 248.882 121.847 268.034 121.847C287.371 121.847 302.867 106.421 302.887 87.1685C302.901 67.9772 287.288 52.4149 268.034 52.4277ZM268.13 106.908C257.246 106.929 248.284 97.9706 248.299 87.073C248.332 76.3177 257.246 67.47 268.047 67.4224C278.967 67.3945 287.941 76.3654 287.88 87.2643C287.81 98.0807 278.967 106.895 268.13 106.908Z"
        fill="#3D3D3D" />
    <path
        d="M423.866 52.4279C404.571 52.3669 388.985 67.8337 388.985 87.0587C388.957 106.408 404.35 121.847 423.646 121.847C442.914 121.847 458.54 106.263 458.5 87.1208C458.459 68.0527 442.928 52.5035 423.866 52.4279ZM423.701 106.908C412.761 106.908 403.911 98.0471 403.925 87.0455C403.938 76.2558 412.802 67.4562 423.688 67.4228C434.504 67.3949 443.437 76.256 443.492 87.011C443.547 97.985 434.641 106.908 423.701 106.908Z"
        fill="#3D3D3D" />
    <path
        d="M641.593 57.7371C630.57 55.1512 619.438 56.0146 608.305 56.8593C605.336 57.078 604.842 58.2098 604.897 60.8575C605.063 69.8763 604.952 78.8959 604.952 87.936C604.952 97.5036 604.993 107.079 604.952 116.662C604.952 118.006 605.034 118.884 606.738 119.02C616.689 119.788 626.611 120.31 636.507 118.498C652.244 115.619 665.176 105.028 664.433 86.0914C663.87 71.7288 655.776 61.0836 641.593 57.7371ZM621.418 108.458C619.726 108.307 620.016 107.113 620.016 106.037C620.001 99.9532 620.001 93.8831 620.001 87.8131C620.001 81.8181 620.097 75.8437 619.961 69.85C619.92 68.0667 620.538 67.3728 622.228 67.2426C626.283 66.9486 630.324 66.8383 634.295 67.8945C642.844 70.1648 647.585 76.4406 648.244 85.5706C649.454 102.093 637.03 109.94 621.418 108.458Z"
        fill="#3D3D3D" />
    <path
        d="M216.96 96.3588C225.014 91.9966 228.649 83.7795 227.289 73.8136C226.181 65.8774 220.486 59.7321 211.827 57.7427C201.43 55.3291 190.937 56.4201 180.478 57.6064C179.138 57.7427 179.152 58.5048 179.152 59.4929C179.166 78.5599 179.186 97.621 179.138 116.702C179.125 118.39 179.784 118.677 181.255 118.636C184.842 118.568 188.457 118.526 192.043 118.664C193.83 118.719 194.194 118.074 194.16 116.456C194.05 111.75 194.112 107.052 194.132 102.354C194.132 101.661 193.83 100.824 194.538 100.303C195.863 99.3419 201.251 100.749 202.062 102.229C204.653 107.086 207.257 111.956 209.861 116.812C210.323 117.676 210.59 118.664 211.964 118.636C217.008 118.581 222.059 118.608 227.116 118.608C227.164 117.333 226.409 116.689 225.962 115.947C222.712 110.597 219.468 105.241 216.088 99.9736C214.954 98.2251 214.892 97.4833 216.96 96.3588ZM207.951 86.5236C204.116 89.0604 199.753 88.9372 195.41 88.54C194.159 88.43 194.098 87.5448 194.112 86.5569C194.146 83.7926 194.112 81.0357 194.112 78.2788C194.112 75.5145 194.146 72.7576 194.112 69.9933C194.098 68.9849 194.174 68.2782 195.473 68.1071C198.977 67.5996 202.44 67.4277 205.848 68.5462C209.579 69.773 211.951 72.223 212.391 76.2418C212.885 80.5143 211.635 84.0954 207.951 86.5236Z"
        fill="#3D3D3D" />
    <path
        d="M589.049 105.822C581.957 106.028 574.853 105.837 567.733 105.919C566.029 105.953 565.233 105.589 565.37 103.683C565.535 101.111 565.535 98.5251 565.355 95.9535C565.233 93.9643 565.947 93.4908 567.843 93.5256C575.127 93.6342 582.439 93.4908 589.722 93.6214C591.62 93.649 592.088 93.0173 592.004 91.2545C591.894 88.7785 591.867 86.269 592.018 83.8132C592.14 81.8372 591.455 81.4126 589.545 81.4466C582.357 81.5563 575.155 81.3029 567.953 81.4466C565.837 81.4942 565.204 80.8291 565.369 78.7994C565.535 76.3986 565.535 73.9839 565.369 71.6252C565.204 69.4782 565.837 68.7641 568.09 68.8133C575.292 68.9568 582.48 68.8133 589.681 68.9091C591.481 68.9439 592.114 68.4356 592.004 66.6044C591.882 64.0399 591.882 61.4541 592.004 58.8677C592.114 57.0642 591.537 56.5499 589.722 56.5627C577.243 56.638 564.792 56.6585 552.353 56.5627C550.472 56.5499 550.074 57.1455 550.086 58.8809C550.17 68.3746 550.141 77.8535 550.141 87.3455C550.141 96.9131 550.141 106.489 550.114 116.057C550.114 117.346 550.045 118.307 551.9 118.307C564.641 118.252 577.381 118.265 590.093 118.307C591.551 118.307 592.059 117.813 592.003 116.373C591.922 113.89 591.838 111.406 592.018 108.923C592.21 106.584 591.62 105.747 589.049 105.822Z"
        fill="#3D3D3D" />
    <path
        d="M154.95 57.5032C145.028 55.4038 134.994 56.3848 124.997 57.5643C123.197 57.7843 123.609 58.923 123.609 59.9311C123.587 69.3276 123.609 78.7099 123.609 88.0933C123.609 97.4001 123.684 106.688 123.539 115.974C123.512 118.224 124.206 118.773 126.323 118.663C129.717 118.498 133.146 118.553 136.547 118.636C138.108 118.69 138.616 118.224 138.582 116.619C138.485 111.845 138.63 107.065 138.52 102.27C138.472 100.569 138.946 100.034 140.671 100.171C145.295 100.549 149.879 100.191 154.4 99.1152C165.334 96.5017 171.758 88.5178 171.793 77.5926C171.806 67.1532 165.945 59.8213 154.95 57.5032ZM151.934 86.7086C148.188 88.964 144.052 88.9306 139.86 88.5803C138.568 88.4702 138.534 87.5924 138.555 86.6117C138.568 83.759 138.555 80.9049 138.555 78.0656C138.555 75.4797 138.678 72.9076 138.507 70.3218C138.41 68.6357 139.056 68.114 140.623 67.9692C143.405 67.7023 146.134 67.578 148.869 68.1963C153.246 69.1702 155.981 71.8647 156.737 76.0283C157.466 80.1294 155.507 84.5615 151.934 86.7086Z"
        fill="#3D3D3D" />
    <path
        d="M91.4955 75.6447C91.4333 69.8424 91.4333 64.0532 91.5158 58.2509C91.5301 56.8311 90.9454 56.5911 89.716 56.5911C83.9017 56.6387 78.0885 56.6532 72.2682 56.5911C70.914 56.5777 70.5846 57.0646 70.5989 58.3399C70.6878 64.6023 70.6878 70.8642 70.7357 77.1269C64.834 77.1269 58.9094 77.2848 53.0134 77.0577C50.4367 76.969 49.9622 77.8194 50.0451 80.1649C50.2175 85.1373 50.231 90.1177 50.0451 95.0827C49.9491 97.4835 50.8146 97.9367 53.0134 97.9091C58.9091 97.799 64.812 97.957 70.7223 98.0049C70.6877 104.246 70.6743 110.488 70.5989 116.743C70.5846 118.087 71.0868 118.458 72.3641 118.458C78.151 118.418 83.9508 118.39 89.764 118.458C91.0691 118.471 91.5161 118.032 91.4955 116.702C91.4536 110.927 91.4536 105.146 91.4955 99.3565C91.5158 98.0804 91.1385 97.5806 89.7914 97.5935C83.517 97.6688 77.2773 97.6688 71.0242 97.7035C70.9905 90.8715 70.9631 84.0477 70.9283 77.2027C77.2016 77.2506 83.4687 77.2854 89.7435 77.3607C91.0208 77.393 91.5158 76.9961 91.4955 75.6447Z"
        fill="#3D3D3D" />
    <path
        d="M91.6201 156.388C91.6406 154.853 91.0845 154.138 89.71 153.535C86.9611 152.369 67.0119 140.393 65.8234 139.433C61.3498 135.825 57.055 131.999 53.1042 127.855C49.0776 123.63 41.8888 113.136 41.7594 112.93C39.9308 110.063 38.2675 107.08 36.8316 104.007C34.6674 99.3703 32.8185 94.5619 31.2727 89.6853C30.3381 86.7707 27.7677 73.5262 27.4175 69.8504C27.2247 67.8123 27.4175 52.8814 27.2592 47.456C27.197 45.1858 27.8296 44.2732 30.0836 43.8136C36.5977 42.4765 85.9505 31.1998 89.1871 30.5971C90.8983 30.2886 91.5921 29.5745 91.5575 27.7025C91.4341 20.2532 91.5444 12.8124 91.4964 5.37024C91.4687 -0.0899266 92.4107 0.163556 86.5484 1.75551C83.3738 2.27722 9.31034 20.2675 0.652497 22.4003C-0.234377 22.6811 0.0401313 23.4434 0.0401313 24.0256C0.163537 36.5428 0.590245 49.0672 0.288313 61.5855C0.212898 64.3974 1.81964 77.6216 2.52085 81.5029C3.05753 84.4799 3.73708 87.4022 4.58913 90.3515C6.10153 95.4137 7.65452 100.345 9.55139 105.283C10.7808 108.486 12.093 111.613 13.6534 114.659C16.1341 119.405 18.8208 124.015 21.8236 128.459C25.4104 133.727 29.3001 138.679 33.56 143.397C38.9476 149.31 44.8579 154.55 51.0704 159.598C55.8385 163.467 60.862 166.936 66.0916 170.133C73.7669 174.797 81.67 178.995 90.3413 181.629C92.5404 182.548 91.5312 180.627 91.5312 180.079C91.6069 172.178 91.5446 164.29 91.6201 156.388Z"
        fill="#3D3D3D" />
</svg>
    