<svg width="286" height="101" viewBox="0 0 286 101" fill="none" xmlns="http://www.w3.org/2000/svg">
    <path fill-rule="evenodd" clip-rule="evenodd"
        d="M4.68164 50.5951C4.68164 29.7908 21.4402 12.8984 42.1878 12.8984C62.937 12.8984 79.9615 29.7017 79.9615 50.5058C79.9615 71.3101 63.1137 88.2025 42.3662 88.2025C32.4348 88.2025 23.3027 84.2906 16.5629 77.889L32.4348 63.6643C35.1839 65.7978 38.6412 67.0426 42.3662 67.0426C51.4091 67.0426 58.7697 59.6634 58.7697 50.5951C58.7697 41.5262 51.4091 34.1472 42.3662 34.1472C33.3214 34.1472 25.9625 41.5262 25.9625 50.5951C25.9625 53.7066 26.7601 56.5516 28.2675 59.041L12.3063 73.2663C7.51812 66.9537 4.68164 59.1302 4.68164 50.5951ZM49.197 60.0017C48.7454 59.4826 48.8347 58.6172 49.3773 58.1848C51.9043 56.2815 53.348 53.3403 53.257 50.2259C53.257 47.4577 52.0846 44.7758 50.0091 42.873C49.4666 42.3536 49.4666 41.575 50.0091 41.0561C50.5497 40.5373 51.3618 40.5373 51.9043 41.0561C54.5205 43.4783 55.9642 46.7655 55.9642 50.2259C55.9642 54.1189 54.2511 57.7521 51.0922 60.1745C50.9121 60.3477 50.5497 60.4341 50.2803 60.4341C49.8288 60.4341 49.4666 60.3477 49.197 60.0017Z"
        fill="#2CB143" />
    <path fill-rule="evenodd" clip-rule="evenodd"
        d="M98.1406 70.5553V30.3018H104.867V48.1859H113.259C113.949 42.8954 116.134 38.525 119.755 35.0172C123.377 31.5669 127.573 29.8418 132.402 29.8418C137.404 29.8418 141.6 31.7395 144.877 35.4773C148.154 39.2151 149.821 43.9305 149.821 49.5084C149.821 55.5464 147.924 60.6069 144.187 64.7473C140.393 68.9451 135.852 71.0152 130.505 71.0152C125.619 71.0152 121.48 69.1752 118.203 65.5523C114.927 61.9296 113.202 57.4441 113.087 51.9812H104.867V70.5553H98.1406ZM119.986 48.9334C119.986 53.8212 121.136 57.9616 123.493 61.3545C125.85 64.7473 128.724 66.4723 132.173 66.4723C135.335 66.4723 137.922 65.0924 139.934 62.3895C141.946 59.6869 142.923 56.179 142.923 51.9236C142.923 47.0358 141.716 42.8379 139.359 39.4451C137.002 36.0523 134.07 34.3847 130.621 34.3847C127.459 34.3847 124.93 35.7648 122.975 38.4675C120.963 41.1703 119.986 44.678 119.986 48.9334ZM180.864 42.9529H153.731V46.9207L164.078 46.6332V70.5553H170.517V46.6332L180.864 46.9207V42.9529ZM190.809 57.8466C191.096 60.6069 192.131 62.677 193.798 64.0571C195.465 65.4949 197.765 66.1848 200.582 66.1848C202.364 66.1848 204.031 65.9548 205.64 65.4949C207.192 65.0348 208.342 64.5746 209.089 64.1147L210.182 63.3671V67.0474C210.067 67.1625 209.894 67.2775 209.722 67.4499C209.492 67.6224 209.032 67.9675 208.285 68.4276C207.537 68.8875 206.79 69.2902 205.985 69.6351C205.123 69.9802 204.088 70.2676 202.766 70.6127C201.444 70.9002 200.064 71.0152 198.684 71.0152C194.258 71.0152 190.694 69.7501 188.049 67.1625C185.348 64.5746 184.025 61.3545 184.025 57.3865C184.025 53.1887 185.52 49.6234 188.452 46.7482C191.384 43.9304 194.948 42.4928 199.259 42.4928C203.168 42.4928 206.158 43.7579 208.227 46.2881C210.239 48.8184 211.274 52.3261 211.274 56.869L209.549 57.8466H190.809ZM198.396 46.7484C196.384 46.7484 194.659 47.4385 193.337 48.7612C192.015 50.0837 191.153 51.9239 190.865 54.2241H205.352C204.605 49.2211 202.248 46.7484 198.396 46.7484ZM223.979 42.9529H218.173V70.5553H224.611V58.5368L227.025 58.1343L236.626 70.5553H243.869L231.969 54.9715L242.202 42.9529H236.971L227.313 54.4538L224.611 54.8565V44.3905L223.979 42.9529ZM270.598 51.5211V64.5172C270.598 65.8974 271.173 66.5873 272.381 66.5873C272.783 66.5873 273.3 66.4723 273.818 66.2999C274.335 66.1274 274.795 66.0124 275.082 65.8398L275.6 65.5523V69.0025C273.933 70.3252 271.806 71.0152 269.219 71.0152C266.402 71.0152 264.735 69.8651 264.275 67.565C261.861 69.8651 258.871 71.0152 255.307 71.0152C252.663 71.0152 250.651 70.3252 249.329 69.0025C248.006 67.68 247.317 66.0698 247.317 64.1147C247.317 62.907 247.604 61.8144 248.121 60.8369C248.639 59.8593 249.329 58.9967 250.191 58.3067C250.996 57.6742 251.973 57.0416 253.123 56.5241C254.273 56.0066 255.365 55.6039 256.399 55.3164C257.377 55.0289 258.469 54.7989 259.676 54.5688C260.883 54.3964 261.746 54.2237 262.378 54.1663C263.01 54.1089 263.585 54.1089 264.16 54.0513V52.7288C264.16 50.9461 263.585 49.566 262.435 48.5308C261.228 47.5532 259.504 47.0357 257.204 47.0357C255.71 47.0357 254.272 47.2657 252.95 47.6683C251.571 48.1283 250.593 48.5883 249.961 49.0485L249.041 49.681V46.1731C249.156 46.0581 249.329 45.9431 249.501 45.7706C249.673 45.5981 250.133 45.3106 250.881 44.908C251.571 44.5055 252.318 44.1029 253.123 43.7579C253.928 43.4704 254.962 43.1829 256.227 42.8954C257.492 42.6078 258.814 42.4928 260.193 42.4928C263.7 42.4928 266.287 43.2979 268.012 44.8505C269.736 46.4031 270.598 48.6458 270.598 51.5211ZM253.813 62.9645C253.813 64.0569 254.215 64.9771 255.077 65.6671C255.94 66.4147 257.032 66.7598 258.469 66.7598C260.481 66.7598 262.378 66.0122 264.16 64.5745V57.2715C263.355 57.3289 262.493 57.3865 261.631 57.5589C260.711 57.7314 259.619 57.9614 258.296 58.3065C256.974 58.709 255.94 59.2842 255.077 60.0892C254.215 60.8942 253.813 61.8718 253.813 62.9645Z"
        fill="#212121" />
</svg>