<svg id="ico-categories" xmlns="http://www.w3.org/2000/svg" width="27" height="26" viewBox="0 0 27 26" fill="none">
    <path
        d="M1.13236 0.928909C0.64338 1.41789 0.64338 2.21113 1.13236 2.70002L6.58253 8.15019C6.9891 8.55676 7.29549 9.0524 7.47725 9.59796L8.75761 13.4392C8.93937 13.9846 9.24576 14.4804 9.65234 14.8869L19.1322 24.3668C20.6431 25.8777 23.0928 25.8777 24.6037 24.3668L24.6324 24.3381C25.3579 23.6126 25.7656 22.6285 25.7656 21.6024C25.7656 20.5762 25.358 19.5921 24.6324 18.8665L15.1528 9.38685C14.7462 8.98028 14.2505 8.67389 13.705 8.49213L9.86363 7.21176C9.31817 7.03 8.82243 6.72362 8.41586 6.31704L2.96569 0.866777C2.47671 0.377797 1.68347 0.377797 1.19458 0.866777L1.13236 0.928909Z"
        stroke="#424242" stroke-miterlimit="10" stroke-linecap="round" stroke-linejoin="round" />
    <path d="M16.2744 18.8903L10.9612 13.5771L13.8423 10.696L19.1555 16.0092L16.2744 18.8903Z"
        stroke="#424242" stroke-miterlimit="10" stroke-linecap="round" stroke-linejoin="round" />
    <path d="M24.5806 18.815L19.0806 24.3149" stroke="#424242" stroke-miterlimit="10"
        stroke-linecap="round" stroke-linejoin="round" />
    <path
        d="M19.7472 18.5556C20.2586 18.5556 20.6731 18.9702 20.6731 19.4815C20.6731 19.9929 20.2586 20.4075 19.7472 20.4075C19.2358 20.4075 18.8213 19.9929 18.8213 19.4815C18.8213 18.9702 19.2358 18.5556 19.7472 18.5556Z"
        fill="#424242" />
    <path
        d="M16.5064 15.6621C16.3537 15.6621 16.2053 15.7225 16.0988 15.829C15.9878 15.94 15.9277 16.0882 15.9277 16.2408C15.9277 16.3936 15.9878 16.5419 16.0943 16.6484C16.3118 16.8659 16.7008 16.8659 16.9137 16.6484C17.0248 16.5419 17.0851 16.3937 17.0851 16.2408C17.0851 16.0882 17.0248 15.9399 16.9137 15.8335C16.8074 15.7225 16.659 15.6621 16.5064 15.6621Z"
        fill="#424242" />
    <path
        d="M14.7099 14.4446C14.4831 14.6668 14.4831 15.0373 14.7099 15.2595C14.9321 15.4863 15.3025 15.4863 15.5248 15.2595C15.7515 15.0373 15.7515 14.6668 15.5248 14.4446C15.4136 14.3289 15.2655 14.2732 15.1175 14.2732C14.9691 14.2732 14.8211 14.3289 14.7099 14.4446Z"
        fill="#424242" />
    <path
        d="M13.7286 12.8843C13.5758 12.8843 13.4275 12.9446 13.321 13.0557C13.21 13.1621 13.1499 13.3104 13.1499 13.463C13.1499 13.6158 13.21 13.7641 13.321 13.8706C13.534 14.0881 13.9275 14.0881 14.1359 13.8706C14.2469 13.7641 14.3073 13.6158 14.3073 13.463C14.3073 13.3104 14.2469 13.1621 14.1359 13.0557C14.0295 12.9446 13.8812 12.8843 13.7286 12.8843Z"
        fill="#424242" />
    <path d="M4.46004 2.36113L2.62671 4.19446" stroke="#424242" stroke-miterlimit="10"
        stroke-linecap="round" stroke-linejoin="round" />
</svg>