<svg width="121" height="121" viewBox="0 0 121 121" fill="none" xmlns="http://www.w3.org/2000/svg">
<g id="Frame" clip-path="url(#clip0_6_355)">
<path id="Vector" d="M66.6429 32.9167C74.1238 32.9167 80.1882 26.8523 80.1882 19.3714C80.1882 11.8906 74.1238 5.82617 66.6429 5.82617C59.1621 5.82617 53.0977 11.8906 53.0977 19.3714C53.0977 26.8523 59.1621 32.9167 66.6429 32.9167Z" fill="url(#paint0_radial_6_355)"/>
<path id="Vector_2" d="M69.9242 58.8465C76.307 58.8465 81.4812 53.6722 81.4812 47.2894C81.4812 40.9067 76.307 35.7324 69.9242 35.7324C63.5414 35.7324 58.3672 40.9067 58.3672 47.2894C58.3672 53.6722 63.5414 58.8465 69.9242 58.8465Z" fill="url(#paint1_radial_6_355)"/>
<path id="Vector_3" d="M56.6468 80.29C55.9084 80.9766 55.1517 81.647 54.3721 82.2921C54.1766 82.4521 53.9783 82.6088 53.7841 82.7733L53.1835 83.2399C52.7776 83.546 52.3672 83.8412 51.915 84.1023C52.4353 84.0285 52.9278 83.8249 53.4087 83.6165C53.6449 83.5034 53.8755 83.3806 54.1092 83.2604C54.3356 83.1309 54.562 82.9989 54.7842 82.861C55.6677 82.3023 56.4911 81.6559 57.255 80.9443C58.0178 80.2319 58.7234 79.4535 59.3352 78.6017C59.9386 77.7498 60.4714 76.8171 60.7277 75.7998C60.1343 76.6552 59.4834 77.423 58.7923 78.1602C58.1042 78.8974 57.3847 79.6024 56.6468 80.29Z" fill="#3D3D3D"/>
<path id="Vector_4" d="M101.045 54.7489C100.941 53.48 100.572 52.2076 99.9027 51.0903C99.2361 49.9712 98.2629 49.0465 97.1624 48.389C96.0581 47.7278 94.8445 47.3158 93.6155 47.0685C92.9963 46.9474 92.362 46.8736 91.7207 46.8671C91.0794 46.8626 90.4325 46.9279 89.8002 47.0689C89.1691 47.2136 88.5543 47.4348 87.9808 47.7217C87.405 48.0049 86.8704 48.3515 86.3709 48.7033C86.1207 48.8783 85.8783 49.0547 85.644 49.2117C85.5268 49.2904 85.412 49.3623 85.3024 49.4233C85.2481 49.4528 85.194 49.4821 85.1444 49.5032C85.1049 49.5233 85.0113 49.561 84.943 49.5913C84.8881 49.6153 84.8361 49.642 84.782 49.667C84.7982 49.2916 84.7996 48.9119 84.7693 48.5263C84.7182 47.8909 84.5849 47.2265 84.2482 46.6126C84.1122 46.3717 83.9446 46.1418 83.7471 45.9397C83.7071 44.5682 83.3338 43.6849 82.8316 43.1059C82.3181 41.3469 80.7251 39.5415 78.9095 39.4661C78.0766 38.3905 77.4556 37.8663 76.8432 37.6629C77.4308 36.0043 79.0827 31.3598 80.1737 28.4521C82.3122 22.7536 81.5526 20.0386 79.6316 14.4399C77.708 8.83464 70.8497 2.01068 66.7924 0.563113C63.2317 -0.707838 55.3729 1.41608 50.6779 2.68458C50.144 2.82903 49.6531 2.9618 49.2169 3.07613C45.2878 4.10736 42.3154 5.59283 39.6719 9.77367C38.6101 9.30221 37.5461 8.83526 36.4741 8.38286C36.1072 8.22755 35.7398 8.07326 35.3694 7.9241L34.8151 7.6979L34.2451 7.48174C33.4813 7.20411 32.7019 6.9691 31.9114 6.77998C30.3308 6.39929 28.7073 6.21263 27.0872 6.18538C25.4665 6.1571 23.8474 6.2993 22.2593 6.54148C21.8624 6.60152 21.467 6.66688 21.0758 6.73306C20.6873 6.79719 20.2909 6.86808 19.9374 6.9025C19.8919 6.90763 19.8503 6.9107 19.8129 6.91152C19.7731 6.91377 19.7325 6.91582 19.7094 6.91295L19.667 6.91193L19.5866 6.90537L19.426 6.89226C19.2109 6.87689 18.9914 6.87382 18.7685 6.88365C18.3237 6.90988 17.8504 6.99348 17.4072 7.22562C17.1882 7.34097 16.9794 7.48768 16.8011 7.66347C16.6241 7.83948 16.4758 8.037 16.353 8.24169C16.1137 8.65455 15.9748 9.08584 15.8818 9.5069C15.6968 10.3521 15.665 11.1733 15.6533 11.9836C15.6472 12.794 15.6703 13.5916 15.7107 14.3975C15.7468 15.2017 15.8273 16.0116 15.94 16.8142C16.0516 17.6182 16.2088 18.4097 16.3731 19.1901L16.8728 21.5204C17.5383 24.6149 18.0948 27.7305 18.6015 30.8588C18.8525 32.4359 19.1674 34.0133 19.544 35.5681C19.9216 37.1234 20.3536 38.6591 20.7988 40.1874C21.6942 43.2419 22.64 46.2725 23.573 49.3078L24.2746 51.5829L24.9958 53.8615C25.4964 55.3755 26.016 56.8837 26.585 58.3757L27.0128 59.4944L27.4642 60.6046C27.7586 61.3473 28.0903 62.0757 28.4093 62.8088C29.0789 64.2619 29.7688 65.7084 30.5583 67.105C32.1058 69.913 33.9519 72.5656 36.0607 74.9858C36.3227 75.2896 36.5979 75.5814 36.8661 75.8797L37.0683 76.1025L37.1695 76.2137L37.2365 76.2944C37.3204 76.4067 37.4072 76.5522 37.4812 76.7153C37.7836 77.3687 37.9914 78.1368 38.1899 78.8892C38.5796 80.4091 38.9015 81.9665 39.2787 83.5177C39.4672 84.2939 39.668 85.0704 39.9026 85.8439C40.0198 86.2289 40.1524 86.6192 40.2882 86.9964C40.4128 87.3507 40.5259 87.7277 40.639 88.1035C41.0799 89.6184 41.4957 91.1531 41.9239 92.6822C42.7779 95.7429 43.6575 98.8009 44.6641 101.827C45.1667 103.335 45.722 104.848 46.3209 106.316C46.8956 107.763 47.3136 109.274 47.5955 110.811C47.8773 112.349 48.0215 113.909 48.0934 115.474C48.128 116.257 48.1358 117.042 48.1162 117.828C48.0998 118.22 48.0877 118.614 48.0487 119.005C48.0115 119.397 47.9723 119.79 47.8549 120.172C48.0713 119.831 48.1928 119.438 48.3071 119.053C48.412 118.664 48.502 118.27 48.5661 117.873C48.7024 117.078 48.7698 116.275 48.7964 115.47C48.8071 115.068 48.8073 114.666 48.8001 114.263C48.7868 113.861 48.7628 113.459 48.7298 113.057C48.6688 112.254 48.5553 111.456 48.4149 110.662C48.1303 109.075 47.7045 107.51 47.1128 106.003C46.518 104.529 45.9853 103.058 45.4898 101.552C44.5033 98.5483 43.6388 95.4985 42.7982 92.4398C42.3761 90.9099 41.9677 89.3785 41.5272 87.843C41.4129 87.4582 41.3002 87.0745 41.1627 86.679C41.0312 86.3088 40.9101 85.9472 40.7974 85.5724C40.5738 84.8256 40.3798 84.0638 40.1966 83.2969C39.8293 81.7616 39.515 80.2071 39.1222 78.6495C38.9167 77.8693 38.7196 77.0927 38.3602 76.3006C38.2696 76.1029 38.159 75.9012 38.0053 75.6959C37.9654 75.6468 37.9162 75.5867 37.8816 75.548L37.783 75.4388L37.5859 75.22C37.3247 74.927 37.056 74.6401 36.8007 74.342C34.7473 71.9661 32.9559 69.3713 31.4493 66.6124C30.681 65.2415 30.0085 63.8165 29.3551 62.3843C29.0437 61.6606 28.7196 60.9428 28.4321 60.2081L27.991 59.1109L27.5724 58.0039C27.2859 57.2689 27.0366 56.5188 26.7688 55.7763C26.509 55.0304 26.2651 54.2783 26.0115 53.5302L25.2954 51.2684L24.5936 48.9929C23.6607 45.9584 22.7146 42.9272 21.8237 39.888C21.3807 38.3681 20.9529 36.8464 20.5814 35.3165C20.2108 33.7855 19.9034 32.2472 19.6553 30.6885C19.1467 27.5492 18.586 24.4114 17.9162 21.2977L17.417 18.9713C17.2544 18.1985 17.1023 17.4316 16.9956 16.663C16.8878 15.8938 16.8103 15.1222 16.7753 14.3405C16.7362 13.5611 16.7132 12.771 16.7194 11.9941C16.7302 11.2196 16.7634 10.4445 16.9165 9.73576C16.9919 9.38212 17.1038 9.0506 17.2623 8.77482C17.4236 8.50108 17.6285 8.29127 17.893 8.15481C18.1544 8.01384 18.4796 7.94705 18.824 7.92533C18.9976 7.91713 19.1752 7.91836 19.3564 7.93025L19.4926 7.9409L19.5606 7.94602L19.667 7.95115C19.743 7.95545 19.8014 7.95176 19.8608 7.94868C19.9227 7.94643 19.9798 7.94193 20.0329 7.93578C20.4693 7.89029 20.8545 7.81674 21.2487 7.75056C21.6399 7.68274 22.0271 7.61676 22.4148 7.55652C23.963 7.31311 25.5179 7.1701 27.0728 7.18977C28.6263 7.20903 30.177 7.38011 31.6858 7.73601C32.4402 7.91283 33.1838 8.1333 33.913 8.39454L34.4572 8.59799L35.0063 8.81887C35.3728 8.96455 35.738 9.11596 36.1029 9.2682C37.5629 9.87632 39.0156 10.5097 40.4644 11.1522C43.3614 12.4389 46.2453 13.7652 49.1146 15.1134L49.7104 14.9005C49.7164 14.8896 49.7428 14.8415 49.7641 14.8081C49.7867 14.771 49.8114 14.7335 49.8377 14.6954C49.8895 14.62 49.9454 14.544 50.0051 14.4692C50.1229 14.3196 50.2516 14.1735 50.3876 14.0324C50.6591 13.7496 50.9564 13.4845 51.2672 13.2337C51.5782 12.9823 51.9083 12.7514 52.2427 12.526C52.5755 12.3158 52.9215 12.1156 53.2842 11.9337C54.7344 11.2032 56.2889 10.6176 57.8412 10.0417C59.3955 9.46613 60.973 8.92316 62.5296 8.30643C62.917 8.15522 63.3022 8.00257 63.6837 7.86407C64.0636 7.72781 64.4461 7.59975 64.7981 7.54341C64.9731 7.51595 65.1364 7.51083 65.2755 7.53316C65.4143 7.55775 65.5288 7.60836 65.6427 7.69483C65.8169 7.82965 65.9752 8.05093 66.116 8.30131C65.9361 8.39228 65.7599 8.48858 65.5907 8.5939C65.2796 8.78629 64.976 8.98688 64.6758 9.19116C64.0743 9.59542 63.5141 10.0697 63.1315 10.7647C63.9085 10.6238 64.5383 10.3052 65.1499 9.95356C65.4569 9.78084 65.7659 9.61303 66.0775 9.45486C66.3807 9.30324 66.6819 9.16002 66.9942 9.04261C67.306 8.92828 67.6199 8.83403 67.931 8.76559C68.243 8.70003 68.5499 8.6779 68.8339 8.69511C69.1163 8.72072 69.3771 8.7824 69.5824 8.92787C69.7402 9.03319 69.8766 9.17866 69.9981 9.35302C69.9817 9.36286 69.9641 9.37269 69.9483 9.38253C69.7422 9.5071 69.5447 9.63926 69.3519 9.77121C68.9638 10.0357 68.585 10.3043 68.2094 10.5769L67.1007 11.4157C66.36 11.9697 65.6366 12.5492 65.1415 13.4316C66.1293 13.2173 66.8967 12.711 67.6558 12.192L68.8061 11.4343C69.1872 11.1803 69.5685 10.9268 69.9514 10.6852L70.5218 10.3316C70.6161 10.2734 70.7052 10.2267 70.7968 10.1734C70.8445 10.1451 70.8708 10.1388 70.908 10.1191L70.9597 10.0933C70.9722 10.0917 70.9843 10.0894 70.9962 10.0867C71.0937 10.0615 71.2629 10.0587 71.4293 10.0929C71.5959 10.1292 71.7719 10.1767 71.9274 10.2644C72.2491 10.4232 72.5029 10.6742 72.6544 10.9705C72.7914 11.2264 72.8324 11.5368 72.8092 11.8673C72.7218 11.8857 72.6355 11.9066 72.5523 11.9316C72.2591 12.0228 71.9987 12.1373 71.7379 12.2975C71.4891 12.4528 71.2789 12.6096 71.0685 12.7706C70.8593 12.9311 70.656 13.094 70.4554 13.2587C69.6484 13.909 68.8704 14.5884 68.3985 15.6064C69.4679 15.2755 70.2487 14.6257 71.0435 13.9998C71.2439 13.8459 71.4451 13.6947 71.6467 13.5501C71.8473 13.4058 72.054 13.264 72.2435 13.1544C72.6111 12.9446 73.065 12.8157 73.4016 12.8557C73.5712 12.8749 73.6901 12.9372 73.7835 13.0233C73.8286 13.0704 73.8706 13.1245 73.9054 13.1944L73.9308 13.2482C73.9304 13.2599 73.9349 13.2612 73.931 13.2812C73.9245 13.4054 73.8587 13.6336 73.7739 13.8406C73.6884 14.0537 73.5842 14.2709 73.4729 14.4862C73.0223 15.3513 72.4654 16.1946 71.8792 16.999C71.5846 17.4006 71.2765 17.7926 70.9531 18.1554C70.7921 18.3353 70.6265 18.5101 70.4632 18.6554C70.3126 18.7912 70.1163 18.9158 69.9215 19.0318C69.5215 19.2608 69.0659 19.4475 68.6014 19.6204C68.1346 19.7915 67.656 19.9491 67.1704 20.0954C65.236 20.7152 63.202 21.0534 61.3531 22.0916C62.6527 22.1062 63.8888 21.8808 65.1139 21.5917C65.178 21.6105 65.2397 21.6275 65.2925 21.6388C65.3874 21.6624 65.4776 21.6814 65.5669 21.6999C65.7478 21.7388 65.923 21.7706 66.1004 21.805L67.1544 21.9976C67.8547 22.1244 68.552 22.2527 69.2449 22.3932C69.9373 22.534 70.6263 22.6854 71.3002 22.8649L71.7977 23.0065C71.952 23.0542 72.1024 23.1097 72.2466 23.1749C72.5355 23.3042 72.8017 23.4699 73.0268 23.673C73.2518 23.8754 73.4372 24.1156 73.56 24.3782C73.6212 24.5092 73.6673 24.6456 73.6923 24.7778C73.7055 24.8403 73.7118 24.9079 73.7126 24.9659C73.7063 24.9659 73.6995 24.9659 73.6932 24.9659C73.5297 24.9634 73.3535 24.9546 73.1781 24.9452L72.1124 24.8837C70.6831 24.8024 69.2433 24.7626 67.8039 24.8026C67.0841 24.8224 66.3641 24.8589 65.6452 24.9206C65.2858 24.9515 64.9264 24.9857 64.5678 25.029C64.2081 25.0712 63.8757 25.107 63.5266 25.1314C62.1429 25.2259 60.7482 25.1277 59.3513 24.9462C57.9527 24.7675 56.5453 24.509 55.0934 24.3891C54.3677 24.3319 53.6313 24.3104 52.8924 24.3614C52.5234 24.3875 52.154 24.4268 51.7874 24.4918C51.5901 24.5229 51.4539 24.552 51.2928 24.5639C51.1361 24.5805 50.9742 24.5825 50.8107 24.5784C50.1553 24.5606 49.473 24.4245 48.7909 24.2698C48.1076 24.1119 47.4193 23.9307 46.7253 23.7572C45.338 23.4083 43.9263 23.0956 42.4957 22.8923C41.7807 22.7895 41.0617 22.7108 40.3407 22.658C39.9803 22.6313 39.6192 22.6129 39.258 22.5973L38.192 22.5504C36.7714 22.4867 35.3536 22.4102 33.9423 22.2894C32.5316 22.1656 31.124 22.0308 29.7325 21.8163C28.3401 21.6161 26.9585 21.3581 25.6187 20.9805C24.2855 20.5965 22.9766 20.0906 21.88 19.2735C21.3389 18.8611 20.856 18.3665 20.5093 17.7715C20.1571 17.1801 19.9499 16.4966 19.869 15.7858C19.8108 16.4983 19.9169 17.2404 20.2071 17.9229C20.4964 18.6052 20.9572 19.2176 21.5065 19.7181C22.0538 20.2242 22.6791 20.6346 23.3315 20.9746C23.9822 21.3204 24.6655 21.5903 25.3554 21.8255C27.4732 22.5315 29.658 22.8747 31.8427 23.0852C31.9292 28.6966 34.1062 32.426 36.0336 35.7258C36.5549 36.6183 37.0474 37.4613 37.5011 38.3331C38.8202 40.8674 40.1534 43.3872 41.0289 45.0347C40.707 44.8065 40.3843 44.5788 40.0571 44.3596C39.6408 44.0996 39.2351 43.8228 38.8099 43.5796C37.9705 43.0743 37.1109 42.6074 36.2453 42.1558C35.3794 41.7036 34.4445 41.3895 33.4993 41.1196L33.4884 41.1422C33.8835 41.4401 34.2873 41.7146 34.6953 41.9783C35.1044 42.2394 35.5036 42.5145 35.9289 42.7407C36.7696 43.211 37.5892 43.7164 38.3907 44.2443C39.9944 45.3013 41.509 46.4743 42.9082 47.7688C43.6036 48.4214 44.2658 49.1078 44.9073 49.8227L46.8329 51.9904C47.4578 52.6992 48.0209 53.464 48.5405 54.2572C48.9708 54.9145 49.3742 55.6082 49.7162 56.3053C49.4943 56.3819 49.2726 56.4594 49.0525 56.5401C48.0166 56.9376 46.9856 57.3554 45.9928 57.8608C44.9971 58.3569 44.0304 58.9236 43.1379 59.5981C42.6914 59.9337 42.2757 60.3142 41.8903 60.7181C41.5219 61.1401 41.1875 61.5958 40.9717 62.1058C41.2758 61.6429 41.6577 61.2537 42.0626 60.8961C42.4867 60.5574 42.9178 60.2327 43.387 59.9593C44.3078 59.3901 45.2901 58.9232 46.2863 58.4931C48.287 57.6437 50.3575 56.9677 52.4605 56.3667C53.5231 56.0506 54.5879 55.6965 55.614 55.2101C55.8726 55.0964 56.1176 54.9432 56.3695 54.8116C56.6184 54.6719 56.854 54.5039 57.0958 54.351C57.322 54.1721 57.5595 54.0076 57.7715 53.8123C57.8236 53.7613 57.8765 53.7113 57.9295 53.6613C57.9426 53.6566 57.949 53.6466 57.9555 53.6368C58.1039 53.497 58.2512 53.3577 58.3788 53.1993C59.1505 52.3431 59.6977 51.3397 60.1421 50.3236C60.5778 49.2996 60.9332 48.2544 61.2371 47.1939C60.7499 48.1837 60.286 49.1811 59.7512 50.1298C59.4226 50.7238 59.0636 51.2979 58.6585 51.8255C58.7079 51.5811 58.7462 51.3352 58.7661 51.0887C58.8607 50.214 58.8224 49.3359 58.6977 48.4763C58.6389 48.0456 58.5405 47.6219 58.4346 47.2027L58.2379 46.5837C58.1653 46.3803 58.0779 46.1817 57.9988 45.9817C57.6566 45.19 57.1997 44.4539 56.6487 43.8072C57.1079 44.5241 57.4617 45.2919 57.7164 46.0867C57.9715 46.882 58.1065 47.709 58.1621 48.5335C58.1815 48.8408 58.1834 49.1482 58.1766 49.4551C57.4732 49.1435 55.8896 48.3138 53.2819 46.2772C49.4627 43.2946 46.795 39.2213 46.5104 38.395C46.3379 37.8942 46.2975 37.1308 46.2461 36.1643C46.208 35.4449 46.1648 34.6297 46.0584 33.6878C45.9156 32.4225 45.272 31.7114 44.6498 31.0235C44.1568 30.4789 43.6868 29.9585 43.4053 29.1387C43.5925 29.2006 43.7747 29.2741 43.9589 29.3428C44.35 29.5034 44.7373 29.6735 45.1089 29.8749C46.6077 30.6584 47.9309 31.7818 49.266 32.9169C49.4291 33.0596 49.6074 33.2034 49.752 33.3444L49.9803 33.5566C50.0538 33.6296 50.1202 33.7086 50.1907 33.7843C50.3368 33.9326 50.453 34.1021 50.5808 34.2645C50.6919 34.4362 50.8115 34.6057 50.8992 34.7907C51.2787 35.5095 51.5895 36.3018 51.6108 37.1945L51.635 37.2004C51.7264 36.9921 51.7819 36.7677 51.8116 36.5403C51.8469 36.312 51.8518 36.0799 51.8413 35.8467C51.8161 35.3814 51.702 34.914 51.4942 34.4936C51.2912 34.0709 51.0379 33.673 50.7402 33.3159C50.6654 33.227 50.5939 33.1341 50.5157 33.0487L50.2733 32.7995C50.1102 32.6266 49.952 32.4871 49.7916 32.3324C49.2003 31.7708 48.5944 31.2159 47.9568 30.6863C47.9158 30.3466 47.9139 30.0079 47.9729 29.6866C48.0414 29.3166 48.1856 28.9719 48.3971 28.675C48.6106 28.38 48.8927 28.1341 49.2166 27.9532C49.5436 27.7788 49.9073 27.658 50.2819 27.6237C51.0291 27.5391 51.801 27.7711 52.3124 28.2692C52.3699 28.3374 52.4394 28.3952 52.4894 28.4702L52.5711 28.5767L52.6547 28.706L52.8226 28.9664L52.9754 29.2358C53.082 29.4127 53.1631 29.604 53.2569 29.7884C53.336 29.9808 53.4256 30.1677 53.4934 30.3662C53.7864 31.1487 53.9925 31.9841 54.2007 32.8344C54.4121 33.6843 54.6375 34.5471 54.9223 35.3921C54.9891 35.6043 55.0688 35.8133 55.1434 36.0231L55.1999 36.1805L55.2444 36.3223C55.2723 36.4161 55.3067 36.5104 55.3304 36.604C55.3765 36.8046 55.3952 37.0048 55.3782 37.1906C55.3716 37.2 55.3741 37.2031 55.3763 37.2062C55.3604 37.3605 55.3198 37.5045 55.245 37.6289C54.9176 38.172 54.0109 38.5187 53.1576 38.3874L53.1469 38.4099C53.3313 38.5462 53.5573 38.6201 53.7843 38.6681C54.0132 38.7179 54.2502 38.7287 54.4914 38.7101C54.7299 38.682 54.9791 38.6345 55.2094 38.5105C55.2667 38.4798 55.3257 38.4509 55.3825 38.4169C55.4358 38.3763 55.4872 38.3325 55.5392 38.2894C55.6507 38.2112 55.723 38.0876 55.8091 37.9813C55.832 37.9411 55.8533 37.8989 55.8748 37.8571C59.4076 42.163 65.6255 43.0839 67.6103 43.2706C67.3239 44.0617 67.1423 44.811 67.2272 45.2573C67.2444 45.348 67.271 45.4251 67.3027 45.4921C66.1267 46.8208 65.0788 48.2307 64.966 49.0068C64.8512 49.7948 65.2235 50.5404 65.8708 50.826C64.6279 52.3117 64.7441 52.6994 64.8086 52.9125C64.935 53.3298 65.1262 53.9605 65.7261 54.1568C65.8423 54.1949 65.965 54.2141 66.0959 54.2141C66.644 54.2141 67.3368 53.8744 68.3137 53.1399C69.7731 52.0427 71.4703 50.8539 72.8338 49.8989C73.5225 49.4166 74.1173 48.9998 74.5285 48.7017C74.8244 48.4872 75.2008 48.3052 75.5929 48.1538C75.1991 48.4851 74.8133 48.8273 74.4402 49.1889C74.2181 49.4069 74.0009 49.6284 73.7878 49.8813L73.2127 50.574C72.8297 51.0315 72.4417 51.4854 72.0507 51.9394C71.66 52.3941 71.2654 52.8463 70.8753 53.3159C70.6802 53.5511 70.4866 53.7912 70.2981 54.047C70.1104 54.3041 69.9242 54.5729 69.768 54.9112C69.6922 55.0817 69.6232 55.2771 69.599 55.5105C69.5785 55.7732 69.6066 55.9258 69.6439 56.127C69.685 56.3192 69.7512 56.5216 69.8785 56.7243C70.0012 56.9243 70.2129 57.1304 70.4794 57.2312C70.7441 57.3342 71.016 57.3297 71.2297 57.2859C71.4479 57.2421 71.6311 57.1662 71.7971 57.0826C72.128 56.9134 72.3929 56.7081 72.6445 56.4973C72.8963 56.2807 73.1094 56.0686 73.3274 55.8613L73.9741 55.2372C74.405 54.8231 74.8377 54.4127 75.2747 54.0076C75.712 53.6025 76.1525 53.202 76.599 52.8094C77.046 52.4215 77.4984 52.0158 77.9443 51.672C78.8546 50.9774 79.8672 50.3839 80.9191 49.963C81.1816 49.8598 81.4467 49.7686 81.7088 49.6991C81.9686 49.6303 82.2335 49.5815 82.4515 49.5805C82.5542 49.5784 82.6441 49.5938 82.6804 49.6075L82.7103 49.6594C82.8597 49.9192 82.9992 50.1759 83.1711 50.4568C83.2166 50.5289 83.2617 50.6007 83.3225 50.6828C83.3844 50.7635 83.4489 50.8535 83.5858 50.9619C83.6585 51.016 83.7471 51.0711 83.8618 51.1067C83.9749 51.1448 84.0937 51.1506 84.1937 51.1438C84.388 51.1235 84.4953 51.0727 84.5892 51.0356C84.7654 50.9574 84.8914 50.8887 85.0217 50.8252C85.1504 50.7613 85.2762 50.7017 85.404 50.6461L85.6149 50.5543C85.7034 50.516 85.7812 50.4742 85.8587 50.4322C86.0111 50.3476 86.1504 50.2593 86.2826 50.1712C86.5469 49.9946 86.7899 49.8178 87.0319 49.6493C87.9849 48.9681 88.9702 48.4413 90.0551 48.2013C91.1341 47.9579 92.2722 47.9895 93.3877 48.2139C94.5082 48.4411 95.5987 48.8185 96.5549 49.3944C97.5103 49.969 98.3264 50.7504 98.8895 51.6974C99.4576 52.6408 99.7863 53.7292 99.8826 54.8499C99.9854 55.9725 99.8703 57.116 99.5957 58.2335C99.0433 60.5064 98.125 62.7068 97.1665 64.8956C96.9266 65.4449 96.6822 65.9928 96.4465 66.5563C96.3293 66.839 96.2136 67.1236 96.1081 67.4287C96.0554 67.582 96.0052 67.7385 95.9646 67.9254C95.9415 68.0262 95.9347 68.1006 95.923 68.1833C95.913 68.2632 95.8993 68.3499 95.8929 68.4239C95.771 69.644 95.6897 70.8277 95.5823 72.0234C95.3747 74.4076 95.1248 76.7852 94.7449 79.1332C94.5511 80.3062 94.3206 81.4674 94.0202 82.6053C93.7114 83.7456 93.3483 84.8872 92.9808 86.024C92.2386 88.2979 91.4465 90.5601 90.6321 92.8135L88.1873 99.575L86.9661 102.957C86.7625 103.521 86.5559 104.083 86.3428 104.644C86.2386 104.925 86.1306 105.205 86.0189 105.483C85.9095 105.763 85.7956 106.04 85.6718 106.315C86.3437 105.311 86.8743 104.222 87.4083 103.144C87.6687 102.601 87.9242 102.056 88.1746 101.509L88.9022 99.8571C89.8504 97.6459 90.7257 95.4062 91.5549 93.1498C92.3823 90.8922 93.1877 88.6272 93.9456 86.3408C94.3216 85.1954 94.6922 84.0505 95.0164 82.8756C95.3344 81.694 95.5763 80.4993 95.7796 79.3055C96.1773 76.9157 96.4404 74.5168 96.66 72.1202C96.7727 70.9256 96.8623 69.7149 96.9848 68.5472C96.9915 68.4718 97.0028 68.4106 97.0114 68.3415C97.0209 68.2757 97.0288 68.2006 97.0413 68.1553C97.0645 68.0489 97.1051 67.9188 97.151 67.7889C97.2425 67.5273 97.3536 67.2558 97.4677 66.9849C97.6974 66.4422 97.9443 65.8951 98.1875 65.3456C99.1616 63.1467 100.117 60.9012 100.712 58.5054C101.016 57.2962 101.155 56.0195 101.045 54.7489ZM45.1721 33.7896C45.2753 34.7048 45.3177 35.5062 45.3554 36.2131C45.4103 37.2492 45.4536 38.0678 45.6671 38.6871C46.0586 39.8233 48.9349 44.016 52.7334 46.9824C55.8001 49.3772 57.5148 50.1683 58.1231 50.4011C58.1026 50.6004 58.0779 50.7986 58.0481 50.9957C58.0217 51.1985 57.9779 51.3971 57.933 51.5944C57.8994 51.7954 57.8373 51.9853 57.7869 52.1794C57.6681 52.54 57.5378 52.9108 57.3548 53.1889C57.1294 53.3706 56.8954 53.5413 56.6582 53.7066C56.4297 53.8376 56.2117 53.9826 55.9765 54.1027C55.7365 54.216 55.5097 54.3481 55.2606 54.4461C54.2878 54.8762 53.2598 55.2173 52.2118 55.5107C51.6678 55.6744 51.1215 55.842 50.5771 56.0182C50.2104 55.2218 49.7953 54.4795 49.3359 53.747C48.8026 52.9116 48.2133 52.1107 47.5607 51.3598L46.5932 50.2687C46.2719 49.9081 45.9513 49.5407 45.6204 49.1799C44.9626 48.4548 44.2738 47.7481 43.5511 47.0773C43.2932 46.8405 43.0289 46.6114 42.7615 46.3854C42.3908 45.6924 40.3255 41.8239 38.2944 37.9213C37.8307 37.0302 37.3331 36.1782 36.8059 35.2761C34.8555 31.9367 32.8467 28.4816 32.7434 23.1661C33.1198 23.1968 33.4962 23.2249 33.8718 23.2507C35.1264 23.3294 36.3791 23.3851 37.6306 23.4331C37.8498 24.1203 38.1309 24.7944 38.4977 25.431C38.9619 26.2331 39.5627 26.9759 40.2966 27.5656C40.9226 28.0866 41.6407 28.4826 42.3847 28.7793C42.6719 30.1677 43.3704 30.9418 43.9884 31.6247C44.5643 32.2607 45.0614 32.81 45.1721 33.7896ZM56.1029 36.6866L56.0685 36.7107L56.0396 36.462C56.0158 36.3424 55.9816 36.2278 55.9523 36.1102L55.9058 35.9363L55.8587 35.7818C55.7966 35.5756 55.7296 35.3714 55.6751 35.1628C55.4431 34.3328 55.2593 33.4904 55.0772 32.633C54.8869 31.778 54.701 30.9 54.3801 30.0392C54.3072 29.8227 54.2095 29.6124 54.1226 29.3996C54.02 29.1924 53.9294 28.9793 53.8118 28.7795L53.6419 28.4765L53.4559 28.1833L53.3616 28.0364L53.2452 27.8809C53.1713 27.7743 53.0752 27.6854 52.9893 27.5883C52.2431 26.8505 51.1684 26.547 50.1803 26.6681C49.6817 26.7183 49.1972 26.8787 48.7544 27.1199C48.3163 27.3686 47.9193 27.71 47.6279 28.1317C47.3376 28.5536 47.1491 29.041 47.069 29.5344C47.0454 29.6796 47.0333 29.8251 47.0267 29.97C46.5579 29.6317 46.0709 29.3135 45.554 29.0424C45.1538 28.8232 44.7365 28.6361 44.316 28.4607C44.1031 28.3796 43.8927 28.2917 43.6765 28.2214L43.0586 28.0075C42.6678 27.8626 42.2839 27.7018 41.9259 27.4988C41.5653 27.3008 41.2191 27.0791 40.9039 26.8183C40.2614 26.3104 39.7381 25.6648 39.3131 24.9538C39.032 24.4881 38.8023 23.9875 38.6077 23.4699L39.2257 23.491C39.5764 23.5062 39.9266 23.5238 40.2765 23.5496C40.9765 23.6011 41.6743 23.6773 42.3693 23.7773C43.7603 23.975 45.1346 24.2787 46.5096 24.6247C47.1978 24.7966 47.8873 24.9784 48.5919 25.1413C49.2974 25.2996 50.0196 25.4496 50.7904 25.472C50.9826 25.4767 51.1779 25.4742 51.3752 25.4541C51.5696 25.44 51.7833 25.3968 51.9376 25.373C52.2728 25.3138 52.6123 25.2775 52.9537 25.2533C53.6366 25.2062 54.3281 25.2253 55.0223 25.2802C56.4113 25.3941 57.8107 25.6498 59.238 25.8328C60.664 26.0182 62.1255 26.1233 63.5874 26.0233C63.9491 25.9985 64.3248 25.9578 64.6725 25.9168C65.0211 25.8748 65.3708 25.8416 65.721 25.8113C66.4215 25.7512 67.1249 25.7154 67.8287 25.6959C69.2378 25.6574 70.6487 25.6957 72.0634 25.7764L73.1311 25.8379C73.3117 25.8475 73.4911 25.8569 73.6835 25.8596C73.7868 25.8586 73.8677 25.8645 74.0257 25.8432L74.054 25.8391L74.1068 25.8262C74.1445 25.8149 74.1765 25.8053 74.2161 25.7871C74.3107 25.7404 74.3726 25.6799 74.416 25.6273C74.5033 25.5179 74.5314 25.432 74.5574 25.3533C74.6379 25.0513 74.6068 24.8343 74.5709 24.6118C74.5293 24.394 74.4591 24.1912 74.3697 23.9996C74.1902 23.6162 73.9294 23.2833 73.6253 23.0096C73.3211 22.7352 72.9738 22.5217 72.6134 22.3605C72.4329 22.2791 72.2487 22.2111 72.0626 22.1535L71.5326 22.0025C70.8298 21.8154 70.1268 21.6612 69.4232 21.5181C68.7198 21.3757 68.0162 21.2462 67.3146 21.1192L67.1356 21.0864C67.2347 21.0618 67.3339 21.037 67.4333 21.0129C67.9332 20.8817 68.434 20.7375 68.9351 20.5742C69.4361 20.4097 69.9397 20.2251 70.4356 19.9558C70.6833 19.8159 70.9265 19.6723 71.1636 19.4723C71.3875 19.2823 71.5787 19.0887 71.7631 18.8906C72.1261 18.4931 72.456 18.0827 72.7728 17.6629C73.4004 16.8191 73.9747 15.9465 74.4632 14.9907C74.583 14.7493 74.6977 14.503 74.799 14.2391C74.8965 13.9699 74.9965 13.7052 75.0188 13.3167C75.0233 13.2726 75.0184 13.2101 75.0137 13.153L75.0045 13.0665C74.9985 13.0335 74.9881 12.9956 74.9782 12.9608C74.968 12.9251 74.9565 12.8901 74.944 12.8555C74.9324 12.8253 74.9239 12.8131 74.9137 12.7909L74.8525 12.6733C74.7662 12.5174 74.649 12.368 74.5088 12.2385C74.2892 12.0404 74.0146 11.9132 73.745 11.8535C73.8059 11.4325 73.7765 10.9752 73.5942 10.5523C73.3631 10.0113 72.9422 9.56038 72.4421 9.30119C72.1966 9.15899 71.9262 9.06904 71.645 9.00348C71.4006 8.9541 71.1398 8.93791 70.8497 8.98811C70.7003 8.66377 70.4868 8.35008 70.1815 8.11015C69.8158 7.81633 69.3595 7.67639 68.9364 7.63418C68.5096 7.58931 68.0955 7.62598 67.7101 7.71368C67.4435 7.77248 67.1854 7.8487 66.9354 7.93987C66.7579 7.60918 66.5436 7.27295 66.1888 6.98794C65.974 6.81993 65.6974 6.697 65.4255 6.65295C65.1534 6.60869 64.8961 6.62487 64.6613 6.66114C64.191 6.73818 63.7823 6.88181 63.3801 7.02442C62.9797 7.16989 62.5914 7.32377 62.2042 7.47498C60.6675 8.08412 59.0982 8.62422 57.5324 9.20386C55.9679 9.78535 54.4009 10.3724 52.8777 11.1387C52.497 11.33 52.1218 11.5454 51.7516 11.7802C51.3963 12.0195 51.0447 12.266 50.7083 12.5373C50.372 12.8087 50.0471 13.0979 49.7424 13.4152C49.5898 13.5736 49.443 13.7398 49.3035 13.9168C49.2474 13.9873 49.1937 14.0619 49.1404 14.1375C46.3875 12.8305 43.627 11.5464 40.8474 10.2959C40.7316 10.2439 40.615 10.1931 40.4991 10.1412C42.681 6.73121 45.0493 5.09351 49.4437 3.93996C49.8819 3.82481 50.3747 3.69183 50.9111 3.54677C55.5054 2.30553 63.1951 0.227707 66.4924 1.40441C70.3344 2.77514 76.9864 9.48355 78.7868 14.7298C80.6835 20.257 81.3719 22.7162 79.3376 28.138C78.1965 31.1793 76.4455 36.1098 75.9312 37.5621C75.6802 37.5805 75.4161 37.627 75.1256 37.6912C74.012 37.9366 69.8217 39.4817 69.1779 40.1712C68.9341 40.4326 68.4071 41.3725 67.9598 42.4035C66.4168 42.2734 59.4199 41.4296 56.1029 36.6866ZM73.9341 13.2538C73.938 13.2612 73.9433 13.2706 73.9421 13.2704C73.9384 13.2665 73.936 13.2622 73.9345 13.2575C73.9339 13.2562 73.9343 13.2552 73.9341 13.2538ZM69.8311 40.7812C70.2073 40.3781 73.9505 38.865 75.318 38.5638C76.249 38.3583 76.7354 38.2528 77.8451 39.5659C75.6081 39.9794 71.4574 41.5175 69.8475 42.926C69.3732 43.3411 68.7675 43.9267 68.1451 44.5795C68.3918 43.4765 69.4216 41.2202 69.8311 40.7812ZM66.7446 49.8233C66.5836 50.0255 66.4125 50.0894 66.2361 50.013C66.0027 49.9122 65.7888 49.5711 65.8517 49.1375C65.983 48.236 68.5454 45.2527 70.436 43.5982C72.1218 42.1234 77.0274 40.4271 78.7065 40.3539C79.7658 40.306 80.7933 41.1313 81.44 42.1728C81.3406 42.1355 81.242 42.1007 81.1468 42.0712C79.9897 41.7095 73.7671 43.7597 71.9001 45.1163C70.8888 45.8514 69.065 47.4848 67.5636 48.9998C67.2644 49.3018 66.9977 49.5786 66.7582 49.8344L66.7446 49.8233ZM74.0056 47.9805C73.6001 48.2745 73.0084 48.689 72.323 49.1691C70.9539 50.1282 69.2503 51.3217 67.7785 52.4277C66.5219 53.3722 66.1037 53.3413 66.0056 53.3097C65.8665 53.2641 65.763 52.9739 65.6769 52.6938C65.8318 51.8087 70.2499 47.4203 72.4255 45.8389C74.3511 44.4389 80.1723 42.7494 80.8812 42.9237C81.4424 43.0987 82.5333 43.439 82.8011 45.2785C82.7673 45.2632 82.7341 45.2458 82.7001 45.2316C82.5351 45.1638 82.3929 45.1105 82.204 45.0599C82.0143 45.0124 81.8262 44.9929 81.6449 44.9911C81.282 44.9886 80.9437 45.0493 80.6249 45.1357C79.9871 45.3105 79.4127 45.5789 78.8622 45.8738C78.3903 46.1295 77.9416 46.4135 77.5031 46.7099C76.8661 46.8267 75.0668 47.2105 74.0056 47.9805ZM83.6432 48.9785C83.5977 48.9041 83.5415 48.8349 83.4803 48.7769C83.3569 48.6583 83.2205 48.5859 83.0975 48.539C82.8488 48.4476 82.6392 48.4358 82.447 48.4353C82.0641 48.4405 81.7354 48.5107 81.4158 48.5937C81.0978 48.6788 80.7952 48.7843 80.4995 48.9011C79.3234 49.3752 78.2481 50.011 77.2515 50.7717C76.7479 51.1623 76.308 51.5612 75.8488 51.9601C75.3948 52.3605 74.9481 52.768 74.5054 53.1794C74.063 53.5911 73.6253 54.0072 73.1918 54.4256L72.5447 55.0532C72.3298 55.2614 72.1179 55.4732 71.9155 55.6494C71.7102 55.8256 71.4953 55.9885 71.2912 56.0932C71.1904 56.1459 71.0923 56.183 71.0162 56.1987C70.9378 56.2164 70.8968 56.2067 70.8806 56.2016C70.8654 56.1959 70.8454 56.1873 70.8099 56.1336C70.7763 56.0826 70.7409 55.9971 70.72 55.8967C70.673 55.6449 70.6741 55.5871 70.7679 55.357C70.8611 55.1485 71.0113 54.9163 71.1765 54.6889C71.3424 54.4604 71.5233 54.2316 71.7098 54.0033C72.0831 53.547 72.474 53.0917 72.8621 52.6332C73.2508 52.1748 73.6393 51.7136 74.023 51.2479L74.5924 50.5511C74.7643 50.3435 74.9653 50.1335 75.17 49.9298C75.998 49.1146 76.9133 48.3579 77.866 47.6807C78.3438 47.3433 78.835 47.0271 79.339 46.7487C79.8426 46.4729 80.3635 46.2297 80.8837 46.084C81.1429 46.0108 81.4012 45.9672 81.6391 45.9654C81.7575 45.9649 81.87 45.9762 81.9717 46.0004C82.0731 46.0256 82.2141 46.0735 82.3267 46.1192C82.8009 46.3108 83.1789 46.6354 83.4289 47.073C83.6786 47.5121 83.8055 48.0481 83.8557 48.6044C83.8798 48.8654 83.8872 49.1316 83.8852 49.4004C83.8266 49.2975 83.7675 49.1936 83.7083 49.0908L83.6432 48.9785Z" fill="#3D3D3D"/>
<path id="Vector_5" d="M89.9388 75.0777C90.4553 74.4739 90.9092 73.8119 91.2884 73.1097C91.6554 72.4 91.9353 71.6365 92.0453 70.8467C91.5888 71.5046 91.1608 72.1293 90.6977 72.7339C90.2289 73.3331 89.7546 73.9203 89.2604 74.4971C88.7631 75.071 88.2597 75.6422 87.7487 76.2159C87.2381 76.7914 86.7242 77.3676 86.2188 77.9841C86.9514 77.6622 87.6108 77.2162 88.231 76.7265C88.8486 76.2323 89.42 75.6793 89.9388 75.0777Z" fill="#3D3D3D"/>
</g>
<defs>
<radialGradient id="paint0_radial_6_355" cx="0" cy="0" r="1" gradientUnits="userSpaceOnUse" gradientTransform="translate(66.643 19.3715) scale(13.5452 13.5452)">
<stop stop-color="#F46E6D"/>
<stop offset="0.375" stop-color="#FF567F" stop-opacity="0.77"/>
<stop offset="1" stop-color="#FDC8D2" stop-opacity="0"/>
</radialGradient>
<radialGradient id="paint1_radial_6_355" cx="0" cy="0" r="1" gradientUnits="userSpaceOnUse" gradientTransform="translate(69.9243 47.2895) scale(11.557 11.557)">
<stop stop-color="#F46E6D"/>
<stop offset="0.375" stop-color="#FF567F" stop-opacity="0.77"/>
<stop offset="1" stop-color="#FDC8D2" stop-opacity="0"/>
</radialGradient>
<clipPath id="clip0_6_355">
<rect width="120" height="120" fill="white" transform="translate(0.902344 0.401367)"/>
</clipPath>
</defs>
</svg>
