<svg width="114" height="121" viewBox="0 0 114 121" fill="none" xmlns="http://www.w3.org/2000/svg">
<g id="Frame" clip-path="url(#clip0_6_364)">
<g id="Group">
<g id="Clip path group">
<mask id="mask0_6_364" style="mask-type:luminance" maskUnits="userSpaceOnUse" x="28" y="14" width="56" height="53">
<g id="SVGID_1_">
<path id="Vector" d="M83.657 28.4289C84.7063 38.0303 82.3505 49.5692 80.5462 53.3953C78.7418 57.2216 75.6565 65.5438 75.6565 65.5438L38.636 66.6917C38.636 66.6917 32.5615 65.6414 28.8388 44.2135C25.1161 22.7854 36.0952 16.2809 52.2466 15.0374C68.3977 13.7934 82.9458 21.9244 83.657 28.4289Z" fill="white"/>
</g>
</mask>
<g mask="url(#mask0_6_364)">
<path id="Vector_2" d="M77.1035 57.605C84.1193 57.605 89.8067 51.6093 89.8067 44.2132C89.8067 36.817 84.1193 30.8213 77.1035 30.8213C70.0877 30.8213 64.4003 36.817 64.4003 44.2132C64.4003 51.6093 70.0877 57.605 77.1035 57.605Z" fill="url(#paint0_radial_6_364)"/>
</g>
</g>
<g id="Clip path group_2">
<mask id="mask1_6_364" style="mask-type:luminance" maskUnits="userSpaceOnUse" x="28" y="14" width="56" height="53">
<g id="SVGID_1__2">
<path id="Vector_3" d="M83.657 28.4289C84.7063 38.0303 82.3505 49.5692 80.5462 53.3953C78.7418 57.2216 75.6565 65.5438 75.6565 65.5438L38.636 66.6917C38.636 66.6917 32.5615 65.6414 28.8388 44.2135C25.1161 22.7854 36.0952 16.2809 52.2466 15.0374C68.3977 13.7934 82.9458 21.9244 83.657 28.4289Z" fill="white"/>
</g>
</mask>
<g mask="url(#mask1_6_364)">
<path id="Vector_4" d="M33.9443 58.6558C40.9601 58.6558 46.6475 52.6601 46.6475 45.2639C46.6475 37.8678 40.9601 31.8721 33.9443 31.8721C26.9285 31.8721 21.2411 37.8678 21.2411 45.2639C21.2411 52.6601 26.9285 58.6558 33.9443 58.6558Z" fill="url(#paint1_radial_6_364)"/>
</g>
</g>
</g>
<path id="Vector_5" d="M42.3184 44.3058C43.5597 45.1897 45.8701 46.8352 48.2068 47.539C48.642 47.67 49.0469 47.7248 49.4204 47.7248C51.2931 47.7248 52.3634 46.3485 52.3762 46.3317L52.5943 46.0444H52.2453C49.3232 46.0444 46.0477 44.0652 44.7241 43.0189C43.2273 41.8356 41.0726 41.8356 38.0903 41.8356C36.1972 41.8356 35.2238 41.6697 35.2142 41.668L35.1591 42.0167C35.1688 42.0184 35.4034 42.0604 35.8722 42.1837C36.1531 42.2579 36.516 42.3464 36.9261 42.4462C38.6027 42.8551 41.1368 43.473 41.9901 44.0725L42.3184 44.3058Z" fill="#3D3D3D"/>
<path id="Vector_6" d="M53.5155 58.657C53.8024 57.6547 54.02 56.6778 54.1823 55.6738C54.3411 54.6725 54.4391 53.6559 54.455 52.6313C54.4707 51.6075 54.4046 50.5755 54.2341 49.5582C54.0586 48.5427 53.7898 47.5372 53.3341 46.6045C53.2447 47.6497 53.2199 48.6458 53.186 49.6397L53.1143 52.6072C53.0971 53.5977 53.0926 54.5939 53.1299 55.6033C53.1745 56.6102 53.2436 57.6438 53.5155 58.657Z" fill="#3D3D3D"/>
<path id="Vector_7" d="M49.9578 52.9928L49.8155 52.8428C49.4131 53.1451 48.973 53.3734 48.5263 53.5687C48.0789 53.7628 47.6206 53.9234 47.1534 54.0412C46.69 54.1667 46.2209 54.2615 45.7533 54.3182C45.2888 54.3807 44.8235 54.4234 44.3732 54.3991C43.9206 54.3822 43.4963 54.2695 43.1128 54.1469C42.6902 54.0164 42.2735 53.9104 41.8198 53.8182C41.368 53.723 40.8906 53.6092 40.335 53.5434C40.0583 53.5153 39.7559 53.4986 39.4432 53.5499C39.1324 53.6024 38.8117 53.7295 38.6034 53.9653L38.6671 54.1665C38.9342 54.2348 39.1264 54.3427 39.3082 54.4764C39.4896 54.61 39.6651 54.7558 39.8563 54.9106C40.2362 55.2147 40.6725 55.5302 41.1648 55.781C41.6529 56.0401 42.2029 56.2139 42.7655 56.2612C43.3689 56.3115 43.9494 56.2187 44.4926 56.1287C45.584 55.9423 46.5938 55.5678 47.5268 55.0478C48.4487 54.5233 49.3312 53.8716 49.9578 52.9928Z" fill="#3D3D3D"/>
<path id="Vector_8" d="M60.4366 74.9739C59.7754 75.014 59.1185 75.0718 58.4469 75.1804C58.1122 75.2459 57.7691 75.2778 57.3485 75.4786C57.1138 75.5851 56.8828 75.6399 56.6567 75.6477C56.4304 75.6525 56.2038 75.6098 55.9726 75.5147C55.9095 75.4902 55.8696 75.4683 55.7879 75.4302C55.648 75.3618 55.5486 75.3355 55.4524 75.3076C55.261 75.2551 55.089 75.2206 54.9179 75.1893C54.2394 75.074 53.5868 75.0153 52.9277 74.9739C51.6123 74.884 50.3097 74.9095 48.9794 74.9185C49.5835 75.2387 50.23 75.4252 50.8645 75.6222C51.5038 75.7996 52.143 75.9685 52.7823 76.1064C53.4181 76.2526 54.0617 76.3788 54.6666 76.5247C54.816 76.5601 54.9638 76.5997 55.0869 76.6413C55.1474 76.6599 55.2042 76.6873 55.2125 76.6911C55.2796 76.7235 55.3852 76.7801 55.4753 76.8166C55.8488 76.9819 56.2771 77.0775 56.705 77.0532C57.1329 77.0367 57.5459 76.9087 57.9005 76.7188C58.0699 76.6165 58.3825 76.537 58.6844 76.4588C59.2961 76.3061 59.9336 76.1684 60.5682 76.0262C61.8412 75.7406 63.115 75.4343 64.4046 75.1097C63.0817 74.8852 61.7564 74.9179 60.4366 74.9739Z" fill="#3D3D3D"/>
<path id="Vector_9" d="M77.4994 42.0167L77.444 41.668C77.4051 41.675 76.4597 41.8356 74.568 41.8356C71.5855 41.8356 69.4309 41.8356 67.9342 43.0189C66.6107 44.0653 63.3349 46.0444 60.4128 46.0444H60.0643L60.2817 46.3317C60.2947 46.3485 61.3651 47.7248 63.2377 47.7248C63.6116 47.7248 64.0165 47.67 64.4514 47.539C66.7883 46.8352 69.0987 45.1897 70.3398 44.3058L70.6688 44.0725C71.5219 43.473 74.0559 42.8549 75.7323 42.4462C76.1428 42.3464 76.5055 42.2579 76.7863 42.1837C77.2543 42.0604 77.4893 42.0184 77.4994 42.0167Z" fill="#3D3D3D"/>
<path id="Vector_10" d="M72.3225 53.5424C71.7671 53.6083 71.2895 53.7221 70.8376 53.8172C70.3844 53.9094 69.9675 54.0154 69.5446 54.1459C69.1614 54.2685 68.7371 54.3812 68.2845 54.3981C67.8342 54.4224 67.369 54.3797 66.9044 54.3173C66.4367 54.2605 65.9679 54.1659 65.5043 54.0402C65.0373 53.9224 64.5789 53.7618 64.1311 53.5677C63.6847 53.3724 63.2446 53.1441 62.8422 52.8418L62.7001 52.9918C63.3264 53.8706 64.2088 54.5223 65.1309 55.0464C66.0641 55.5665 67.074 55.941 68.1649 56.1274C68.7082 56.2173 69.2889 56.3102 69.892 56.2599C70.4546 56.2125 71.0043 56.039 71.4928 55.7797C71.9849 55.5289 72.4215 55.2133 72.8014 54.9093C72.9925 54.7545 73.1678 54.6087 73.3493 54.4751C73.5312 54.3414 73.7234 54.2335 73.9904 54.1652L74.0542 53.9639C73.8457 53.7281 73.5252 53.6009 73.214 53.5486C72.9021 53.4976 72.5993 53.5144 72.3225 53.5424Z" fill="#3D3D3D"/>
<path id="Vector_11" d="M52.2637 66.3287C52.0203 66.2612 51.759 66.1476 51.5048 66.0168C50.9945 65.7483 50.4876 65.4337 50.0682 64.9699C50.1448 65.2868 50.3142 65.578 50.4981 65.8439C50.6837 66.1131 50.9025 66.352 51.1353 66.5825C51.3736 66.8072 51.6301 67.0147 51.9405 67.1846C52.0993 67.2686 52.265 67.3478 52.4935 67.3833C52.6481 67.4022 52.6223 67.4117 52.6544 67.421C52.6673 67.4302 52.6797 67.4376 52.6922 67.4432L52.7433 67.4772C52.8969 67.5817 53.1414 67.815 53.4029 68.0103C53.6658 68.2151 53.9614 68.394 54.2636 68.544C54.8718 68.8436 55.513 69.0151 56.1437 69.1128L56.1902 69.1196H56.2386L56.4199 69.1193L56.4697 69.1191L56.5147 69.1121C57.1457 69.0146 57.7866 68.8422 58.3947 68.5426C58.6968 68.3932 58.9917 68.2133 59.255 68.0086C59.5163 67.8134 59.7603 67.5798 59.9147 67.4754L59.9655 67.4411C59.9783 67.4355 59.9908 67.428 60.0034 67.4188C60.0359 67.4095 60.0104 67.4005 60.1647 67.3813C60.3931 67.3462 60.5584 67.2664 60.7168 67.1828C61.0272 67.0129 61.2836 66.8055 61.5219 66.581C61.7549 66.3503 61.974 66.1119 62.1594 65.8431C62.3437 65.577 62.5131 65.2864 62.5899 64.9697C62.1718 65.434 61.6643 65.7488 61.1545 66.018C60.9005 66.1492 60.6387 66.2632 60.3953 66.3306C60.2764 66.3604 60.1548 66.3823 60.0844 66.3706C60.0904 66.3672 59.9149 66.365 59.8002 66.3814L59.6224 66.4219C59.5689 66.439 59.5195 66.4602 59.468 66.4804C59.0869 66.6581 58.8665 66.8312 58.6214 66.9685C58.3827 67.1056 58.1472 67.2202 57.8998 67.3168C57.4195 67.5034 56.9037 67.6276 56.368 67.7069H56.2913C55.7552 67.6272 55.2392 67.5024 54.7585 67.3156C54.5108 67.2193 54.2759 67.1037 54.0373 66.9669C53.792 66.8293 53.5724 66.6562 53.1909 66.4789C53.1391 66.458 53.0893 66.4377 53.036 66.4195L52.8579 66.3795C52.743 66.3626 52.5673 66.3652 52.5737 66.3688C52.5039 66.3807 52.3826 66.3583 52.2637 66.3287Z" fill="#3D3D3D"/>
<path id="Vector_12" d="M56.5451 79.1856C56.2029 79.1864 55.8607 79.2346 55.5186 79.3386C55.1765 79.4482 54.8342 79.5997 54.4921 79.8923C54.8342 80.1849 55.1763 80.3368 55.5186 80.4462C55.8607 80.55 56.2029 80.5983 56.5451 80.5993C56.8872 80.6001 57.2294 80.5521 57.5716 80.4481C57.9137 80.3392 58.2558 80.187 58.5979 79.8923C58.2558 79.5977 57.9137 79.4455 57.5716 79.3366C57.2294 79.2331 56.8872 79.1847 56.5451 79.1856Z" fill="#3D3D3D"/>
<path id="Vector_13" d="M113.884 107.359C113.843 106.978 113.772 106.601 113.679 106.23C113.585 105.858 113.467 105.493 113.325 105.138C113.174 104.788 113.002 104.448 112.811 104.12C112.071 102.795 111.114 101.603 110.014 100.589C108.912 99.5798 107.667 98.7325 106.361 98.0855C105.073 97.4331 103.771 96.8635 102.464 96.3094C99.8469 95.2111 97.2181 94.1701 94.5744 93.1779C92.1986 92.2728 89.8108 91.407 87.4279 90.5379C87.5781 90.1372 87.7288 89.7367 87.8803 89.3367C88.6289 87.3436 89.4678 85.355 90.1395 83.2594C90.4766 82.214 90.784 81.1487 91.0005 80.0277C91.1004 79.462 91.1835 78.8857 91.2072 78.2795C91.2237 77.6732 91.1867 77.0294 90.9981 76.3808L90.8479 75.9363C90.8261 75.8742 90.8044 75.8122 90.7833 75.7489C90.8725 73.7175 91.076 67.4194 90.3786 63.4997C89.8658 60.6172 88.9464 58.8144 87.7014 57.1356C87.4688 56.6847 84.7836 51.4552 83.5631 48.1635C83.3461 47.5781 83.1414 47.0386 82.9452 46.5336C83.3724 44.2735 86.5717 26.4293 83.0921 16.6069C79.5079 6.48899 69.0621 -0.200189 59.3112 1.37634L59.3258 1.47706C59.3121 1.46372 59.2987 1.44936 59.2849 1.43619C58.2285 0.441266 54.8069 0.545581 53.3848 0.636387C46.981 1.04578 38.3786 3.59466 33.439 9.52165C26.2756 18.1174 26.6255 24.2467 27.1553 33.5243C27.1893 34.1211 27.2242 34.7312 27.2578 35.3558C27.719 43.9426 28.9246 47.9904 28.9893 48.203C27.7637 51.4932 25.1024 56.6777 24.8669 57.1343C23.6216 58.8136 22.7018 60.6165 22.1889 63.4997C21.499 67.3789 21.6909 73.5873 21.7816 75.6843C21.7553 75.7682 21.7271 75.8479 21.6995 75.9278L21.549 76.3736C21.3592 77.0256 21.3219 77.6721 21.3382 78.2798C21.3619 78.8874 21.445 79.4656 21.5451 80.0316C21.7619 81.1547 22.0693 82.2211 22.4064 83.2671C23.0782 85.364 23.9168 87.353 24.665 89.346C25.0854 90.451 25.5017 91.5586 25.9012 92.6692C23.6767 93.4625 21.4625 94.2938 19.2737 95.2052C16.8178 96.2127 14.3975 97.3283 12.0187 98.5527C9.64805 99.79 7.32238 101.174 5.20125 102.906C4.14507 103.775 3.12782 104.714 2.24586 105.811C1.79539 106.349 1.43348 106.976 1.15788 107.639C0.883412 108.301 0.695566 109.008 0.661987 109.717L0.698165 109.727C1.2982 108.465 2.13896 107.482 2.99432 106.508C3.83995 105.521 4.8572 104.688 5.90024 103.908C6.95204 103.135 8.05964 102.435 9.1898 101.776C10.317 101.11 11.4741 100.494 12.6412 99.8953C14.9778 98.7008 17.3826 97.6419 19.8047 96.6219C21.978 95.7148 24.1725 94.8545 26.3752 94.0143C26.5288 94.4617 26.68 94.9096 26.8242 95.3576C26.9864 95.86 27.1343 96.3625 27.264 96.856L27.3533 97.2221L27.4226 97.5705L27.4429 97.7235L27.4536 97.7988L27.4528 97.8383C27.4661 97.8631 27.4403 98.0134 27.4262 98.1214C27.3564 98.6095 27.2664 99.1634 27.1809 99.6867L26.9175 101.28L25.8355 107.657C25.0846 111.904 24.3858 116.161 24.3005 120.542C25.7369 116.43 26.5525 112.194 27.3034 107.945L28.4522 101.573L28.733 99.9767C28.8264 99.4365 28.9164 98.9266 29.0047 98.3475C29.0233 98.1881 29.0569 98.0727 29.0498 97.8261L29.0465 97.6631L29.0323 97.538L29.0013 97.2892L28.9179 96.8437L28.8202 96.424C28.6824 95.8749 28.5312 95.3436 28.3685 94.8213C27.7183 92.7333 26.9866 90.7074 26.2341 88.6872C25.4832 86.6592 24.6661 84.6892 24.0367 82.6859C23.7191 81.6853 23.4368 80.6777 23.2496 79.6814C23.0749 78.6952 22.9899 77.6892 23.2227 76.9206L23.3324 76.6043C23.3849 76.4577 23.4399 76.3089 23.4795 76.1684C23.5692 75.8818 23.6391 75.604 23.7054 75.3277C23.8373 74.775 23.9415 74.2343 24.0412 73.6958C24.2399 72.6196 24.4138 71.5561 24.5931 70.4967C24.9569 68.3875 25.332 66.2603 25.8516 64.2465C26.1197 63.2464 26.4344 62.2946 26.9201 61.537C27.1606 61.1536 27.4594 60.8082 27.8024 60.4605L28.3625 59.8964C28.5576 59.7016 28.7364 59.4986 28.9237 59.2999C30.3801 57.6875 31.6738 55.9793 32.9123 54.2168C33.5276 53.3305 34.1276 52.4404 34.6903 51.4872C34.7888 51.3239 34.8863 51.1489 34.9817 50.9754C35.0136 51.1267 35.0422 51.282 35.0628 51.4349L35.1244 52.1275L35.0881 52.8187L34.9721 53.5333C34.7692 54.4956 34.4193 55.4635 34.0155 56.4104C33.2018 58.3123 32.1382 60.1226 31.0274 61.9192L30.6014 62.6171C30.5165 62.7575 30.4919 62.8029 30.4249 62.8986L30.1926 63.2179C30.0034 63.4715 29.8237 63.8245 29.7217 64.1389C29.6127 64.4598 29.5505 64.7643 29.5037 65.0593C29.327 66.2338 29.3322 67.3308 29.3213 68.421C29.3218 70.5991 29.3755 72.7586 29.4363 74.9262C29.4365 74.9321 29.442 75.1541 29.442 75.1541L29.5666 75.3359C30.7399 77.0474 31.8741 78.8207 32.9556 80.6122C34.0364 82.4073 35.0764 84.2294 36.0289 86.0953C36.9779 87.9741 37.8959 89.8224 38.3043 91.823C38.5235 92.8138 38.6414 93.8257 38.6115 94.8242C38.6038 95.3244 38.5431 95.8169 38.4597 96.2995C38.43 96.4377 38.399 96.5747 38.3656 96.7105C38.1723 97.0795 38.0365 97.4215 37.9922 97.7521C37.9877 97.7611 37.9734 97.9552 37.9734 97.9552C37.8345 99.8344 37.7708 101.715 37.7197 103.596C37.6788 105.477 37.6597 107.358 37.6686 109.241C37.6809 111.122 37.6898 113.005 37.7868 114.888C37.8817 116.771 38.0081 118.655 38.2808 120.542C38.6141 118.666 38.801 116.788 38.9563 114.909C39.1139 113.03 39.1832 111.149 39.2562 109.269C39.3256 107.388 39.367 105.507 39.3868 103.626C39.3957 101.79 39.3918 99.9545 39.319 98.1177C39.4264 97.8728 39.4927 97.6638 39.5664 97.4296C39.5835 97.3729 39.5965 97.3155 39.6119 97.2585C39.7605 96.9931 39.9437 96.6978 40.1177 96.4184C41.0651 94.8973 42.3625 92.8144 42.3008 90.0358C42.2512 87.8002 41.554 83.3549 40.8318 79.4468C44.9452 83.8937 49.9656 87.9952 51.6973 88.5169C53.4703 89.0511 55.4545 89.1396 57.1393 89.1396C57.587 89.1396 58.0134 89.1336 58.4091 89.1276C58.7389 89.1228 59.0453 89.1184 59.3217 89.1184C60.5059 89.1184 61.6631 88.716 61.6836 88.7083C63.3472 88.2069 67.5934 84.4893 71.3234 80.3095C70.7524 83.7901 70.3178 87.6949 70.2657 90.036C70.2042 92.8145 71.5015 94.8976 72.449 96.4186C72.6229 96.698 72.8062 96.9933 72.9546 97.2587C72.9702 97.3157 72.9831 97.3731 73.0005 97.4297C73.0743 97.665 73.1411 97.875 73.2492 98.1211C73.2005 99.9565 73.2049 101.791 73.2226 103.625L73.272 106.447L73.3538 109.268C73.4302 111.149 73.4884 113.029 73.6203 114.909C73.7571 116.788 73.9426 118.667 74.2799 120.542C74.5681 118.655 74.6937 116.771 74.7698 114.888C74.8411 113.005 74.8392 111.123 74.8546 109.241L74.8457 106.419L74.8042 103.597C74.762 101.716 74.7068 99.8353 74.5931 97.9554L74.5824 97.7728C74.5315 97.4256 74.3957 97.0817 74.2012 96.7111C74.168 96.575 74.1367 96.4379 74.1071 96.2999C74.0236 95.8173 73.9629 95.3248 73.955 94.8246C73.925 93.8261 74.0434 92.8142 74.2622 91.8234C74.6708 89.8227 75.5888 87.9745 76.5378 86.0956C77.4903 84.2299 78.5302 82.4078 79.6112 80.6125C80.6926 78.8209 81.8264 77.0475 82.9998 75.3362L83.1248 75.1545L83.1302 74.9325C83.1895 72.759 83.2408 70.5991 83.2408 68.4213C83.2295 67.3315 83.2335 66.2341 83.0562 65.0608C83.0095 64.766 82.9474 64.462 82.838 64.1418C82.7363 63.8279 82.5571 63.4764 82.3679 63.223L82.1355 62.9039C82.0685 62.8078 82.0432 62.7621 81.9585 62.6221L81.5322 61.9249C80.4204 60.1286 79.3551 58.3187 78.5398 56.4162C78.1354 55.469 77.7847 54.5007 77.581 53.5369L77.4637 52.8211L77.4288 52.1278L77.4901 51.4333C77.5125 51.2673 77.5441 51.0985 77.5797 50.9352C77.6807 51.1192 77.7847 51.3058 77.8892 51.4795C78.4522 52.4319 79.0522 53.3214 79.6675 54.2074C80.9064 55.9687 82.2005 57.6762 83.6564 59.2869C83.8439 59.4855 84.0227 59.6883 84.2175 59.8829L84.7778 60.4467C85.1215 60.7949 85.4216 61.1415 85.6632 61.5259C86.1513 62.2866 86.4668 63.2408 86.7356 64.2414C87.2564 66.2567 87.632 68.3837 87.9966 70.4933C88.1783 71.5522 88.3465 72.6167 88.5467 73.6925C88.6468 74.2305 88.7508 74.7712 88.8825 75.3231C88.9485 75.5989 89.0186 75.8763 89.1081 76.1622C89.1479 76.3024 89.2025 76.4505 89.2548 76.5964L89.3651 76.9147C89.5996 77.6897 89.514 78.6986 89.3396 79.6867C89.1521 80.6844 88.87 81.693 88.5524 82.6944C87.9227 84.6991 87.1056 86.6695 86.3552 88.6975C85.5991 90.7157 84.8694 92.7422 84.2193 94.8292C84.0567 95.3515 83.9056 95.8823 83.7682 96.4303C83.7002 96.7046 83.6382 96.9897 83.5873 97.2938L83.5566 97.5414L83.5427 97.6659L83.5394 97.827C83.5323 98.0705 83.5657 98.1866 83.5842 98.3451C83.6725 98.9231 83.7628 99.4334 83.8561 99.9735L84.1369 101.57L85.286 107.941C85.6828 110.062 86.0325 112.191 86.4916 114.299C86.9584 116.405 87.5004 118.497 88.2667 120.543C88.2717 118.343 88.0549 116.188 87.7653 114.047C87.4675 111.908 87.0629 109.79 86.709 107.662L85.6275 101.285L85.364 99.6918C85.2784 99.168 85.1885 98.6146 85.1186 98.1256C85.1047 98.0168 85.0785 97.8667 85.0922 97.8388L85.0909 97.7977L85.1019 97.7218L85.1223 97.5676C85.1635 97.3403 85.2171 97.099 85.2815 96.8514C85.4114 96.3568 85.5593 95.854 85.7217 95.3514C86.096 94.1876 86.5078 93.0269 86.9335 91.8685L94.0833 94.6083C96.71 95.6247 99.3413 96.6268 101.935 97.7054C103.23 98.2477 104.52 98.8041 105.771 99.4026C107.008 99.9933 108.17 100.707 109.227 101.582C110.279 102.459 111.214 103.499 111.948 104.686C112.641 105.894 113.372 107.102 113.878 108.507L113.915 108.503C113.949 108.121 113.93 107.738 113.884 107.359ZM83.9993 52.6446C82.8134 51.0549 81.655 49.1115 80.6908 47.4882C80.2076 46.675 79.8283 46.0407 79.5149 45.5477C79.3395 44.4765 79.4304 43.1999 79.5869 42.4896C80.2551 43.4879 81.1181 45.452 82.3144 48.6782C82.7566 49.8715 83.3732 51.2869 83.9993 52.6446ZM81.836 17.1018C84.6234 24.9702 82.8465 38.7691 81.983 44.1867C81.2799 42.5877 80.7141 41.6046 80.1894 41.0391C80.1811 41.0305 80.1725 41.0249 80.1649 41.0163C79.8007 39.8993 78.8316 37.2441 76.4972 32.3216C73.7256 26.4782 66.6918 22.0012 64.3802 20.5298C64.23 20.4339 64.0769 20.3366 63.9585 20.2596C63.9538 20.1269 63.9482 19.9616 63.9427 19.7991C63.6702 11.4963 62.4544 5.74886 60.3245 2.66489C69.2335 1.66842 78.5651 7.86817 81.836 17.1018ZM28.4942 33.4396C27.9845 24.5118 27.6478 18.6135 34.447 10.455C39.1144 4.85431 47.3324 2.43984 53.4664 2.04806C56.6182 1.84627 58.146 2.25977 58.3917 2.49114C58.9116 2.9804 59.3843 3.62391 59.8098 4.41551C62.2677 10.7693 61.2384 19.9315 60.6874 21.5588C60.1722 23.0199 49.0744 32.4006 41.5622 36.0121C36.9065 38.2501 34.4764 39.8188 33.2748 40.7167C33.0041 40.6588 32.6735 40.7219 32.3788 41.0396C31.6816 41.7912 30.9122 43.2754 29.8424 45.9723C29.4467 44.0302 28.8773 40.498 28.5969 35.2763C28.5633 34.6497 28.5284 34.038 28.4942 33.4396ZM32.9812 42.4897C33.1374 43.2001 33.2286 44.4764 33.0534 45.5472C32.7402 46.0402 32.3606 46.6747 31.8775 47.4878C30.9131 49.1114 29.7546 51.0549 28.5688 52.6446C29.1946 51.2869 29.8114 49.8715 30.2537 48.6784C31.4499 45.4523 32.3131 43.4883 32.9812 42.4897ZM34.3416 48.9154L34.2707 48.977C33.9067 49.3157 33.7685 49.5969 33.6116 49.8746C33.4865 50.1017 33.3725 50.311 33.2375 50.5337C32.715 51.4137 32.1257 52.2855 31.5279 53.1403C30.3235 54.8458 29.0475 56.5161 27.6719 58.0293C27.4974 58.2126 27.3271 58.4057 27.1494 58.5817L26.5964 59.1351C26.2005 59.5338 25.8006 59.9884 25.4729 60.506C24.808 61.5473 24.456 62.6725 24.1622 63.7429C23.7071 65.4896 23.3749 67.2171 23.0645 68.9477C23.1177 67.1059 23.2449 65.2377 23.5077 63.7605C24.1958 59.8914 25.5763 58.2966 27.8632 55.654C28.1599 55.3113 28.4695 54.9534 28.7923 54.5736C30.318 52.778 31.8131 50.2607 33.0145 48.2385C33.6009 47.2513 34.2485 46.1608 34.6392 45.6325C34.8386 46.2076 34.9775 47.4418 34.7104 48.708C34.6928 48.715 34.6748 48.7208 34.6569 48.7285C34.5622 48.7668 34.4966 48.808 34.4355 48.8496L34.3416 48.9154ZM30.7981 68.4393C30.8194 67.3713 30.839 66.2983 30.9983 65.3387C31.0384 65.1015 31.0903 64.8772 31.1574 64.6904C31.2282 64.4967 31.2926 64.3667 31.4202 64.1954L31.6598 63.8749C31.7484 63.7566 31.8589 63.5719 31.9129 63.4855L32.3277 62.8264C32.5934 62.4085 32.858 61.9873 33.1191 61.5618C33.1629 62.538 33.2307 63.4782 33.3337 64.3893L33.298 64.3785C32.6664 66.7222 32.7961 69.5702 32.891 71.6496C32.9357 72.6283 32.9777 73.5523 32.9019 73.8982L32.7841 74.4362L30.7748 73.8936C30.7655 72.0729 30.766 70.2496 30.7981 68.4393ZM40.9606 90.0695C40.9943 91.5824 40.5177 92.8982 39.9469 94.0092C39.912 93.1603 39.7917 92.3222 39.6116 91.5053C39.5049 90.9541 39.3319 90.4269 39.1801 89.892L38.9005 89.1119L38.7595 88.7223L38.5966 88.3442L38.2704 87.5887C38.1583 87.3412 38.0393 87.104 37.9239 86.8612C37.6954 86.3759 37.4515 85.9003 37.2095 85.4237C36.2372 83.52 35.1825 81.6721 34.0877 79.8536C33.1971 78.3792 32.2798 76.9324 31.3232 75.5011L33.7824 76.1646L34.2089 74.216C34.3262 73.6793 34.2861 72.7997 34.2306 71.5818C34.1912 70.7159 34.1487 69.709 34.1573 68.6741C34.5325 69.9895 35.0282 71.277 35.6834 72.5722C36.4388 74.0651 37.6512 75.758 39.0865 77.4696C39.9868 82.03 40.9069 87.6429 40.9606 90.0695ZM78.4804 79.8538C77.3855 81.6725 76.3308 83.5202 75.3586 85.4239C75.1164 85.9005 74.8728 86.3761 74.6441 86.8614C74.5289 87.1042 74.4097 87.3414 74.2976 87.5889L73.9714 88.3444L73.8085 88.7225L73.6675 89.112L73.3877 89.8922C73.236 90.4271 73.0629 90.9543 72.9562 91.5055C72.776 92.3222 72.6558 93.1605 72.6211 94.0094C72.0501 92.8983 71.5736 91.5826 71.6074 90.0697C71.6621 87.6058 72.2149 82.5624 73.0488 78.2961C74.6851 76.299 76.1006 74.2962 76.973 72.5724C77.5806 71.3712 78.0485 70.1649 78.413 68.9364C78.413 69.8783 78.3735 70.7893 78.3372 71.5819C78.2817 72.7998 78.2415 73.6797 78.3591 74.2158L78.7856 76.1646L81.2448 75.5011C80.2883 76.9326 79.371 78.3792 78.4804 79.8538ZM80.6619 63.4809C80.7159 63.5678 80.8259 63.7514 80.9145 63.8701L81.1541 64.1909C81.2821 64.3626 81.3468 64.4934 81.4172 64.6877C81.4845 64.875 81.5364 65.0997 81.5763 65.3372C81.7351 66.2974 81.7541 67.3712 81.7747 68.4391C81.8063 70.2496 81.805 72.0727 81.7945 73.8933L79.784 74.4362L79.6662 73.8979C79.5905 73.5523 79.6325 72.6282 79.6769 71.6496C79.7701 69.6107 79.892 66.8359 79.3014 64.5193C79.4109 63.5962 79.4836 62.6501 79.5308 61.6761C79.7678 62.0608 80.007 62.4427 80.2475 62.8218L80.6619 63.4809ZM78.2543 59.4967C78.1868 64.2937 77.7261 68.0793 75.7898 71.9067C72.8506 77.7165 63.4773 86.6979 61.2889 87.358C61.2787 87.3618 60.2838 87.7048 59.3225 87.7048C59.0404 87.7048 58.7277 87.7091 58.3912 87.7139C56.5895 87.7419 54.1213 87.777 52.0665 87.1577C49.6388 86.4267 39.6976 77.5014 36.8671 71.9067C34.9228 68.0634 34.4626 64.2299 34.4006 59.3637C34.7943 58.6407 35.1668 57.8999 35.5061 57.1349C35.9537 56.1191 36.3566 55.0652 36.614 53.9195L36.7678 53.0389C36.7896 52.7308 36.8119 52.4221 36.8238 52.1129C36.8017 51.8078 36.7774 51.4672 36.7484 51.1917C36.7078 50.8856 36.6552 50.5942 36.577 50.285C36.4907 49.9739 36.4134 49.6644 36.1611 49.2596C36.128 49.2092 36.0924 49.1575 36.0426 49.0997C36.0328 49.0876 36.0197 49.0741 36.0087 49.0613C36.4118 47.1939 36.1263 45.2242 35.5369 44.457C35.1805 43.9929 34.7752 43.9676 34.5657 43.9934C34.5383 43.997 34.5116 44.0035 34.4846 44.0095C34.4708 43.2205 34.3776 42.4063 34.1698 41.7818C35.3136 40.9435 37.6546 39.4446 42.1188 37.2986C49.6386 33.6835 61.2224 24.1827 61.9504 22.0344C62.1529 21.4357 62.3884 20.1362 62.5449 18.4329C62.567 18.8962 62.5864 19.3665 62.6023 19.8482C62.6309 20.7208 62.633 20.7922 62.7151 20.9649C62.8215 21.1896 62.9036 21.2419 63.6869 21.7404C65.9159 23.1591 72.6996 27.4771 75.2971 32.9541C77.3474 37.2772 78.3265 39.8261 78.7582 41.0712C78.2913 41.6547 78.1033 42.8605 78.0835 44.0098C78.0564 44.0037 78.0295 43.9972 78.0021 43.9936C77.7922 43.9673 77.3904 43.9919 77.0416 44.4459C76.4047 45.2753 76.2563 47.2373 76.6481 48.9905C76.6047 49.0319 76.5657 49.0724 76.5363 49.11C76.4868 49.1671 76.4518 49.2181 76.4185 49.2684C76.1681 49.6699 76.0905 49.9787 76.0046 50.2889C75.9265 50.5974 75.8735 50.8883 75.8329 51.1937C75.8037 51.4692 75.7799 51.8089 75.7575 52.1131C75.771 52.4218 75.7935 52.7297 75.8148 53.0372L75.9677 53.9165C76.2244 55.0608 76.6265 56.1142 77.0731 57.1298C77.4342 57.9436 77.8332 58.7294 78.2543 59.4967ZM88.3859 63.7489C88.0927 62.679 87.7411 61.5562 87.0788 60.5177C86.7521 60.0014 86.3539 59.5479 85.9582 59.1496L85.4059 58.5957C85.2279 58.4194 85.0575 58.2263 84.8827 58.0427C83.5067 56.528 82.231 54.8566 81.0271 53.1503C80.4295 52.2949 79.8401 51.4229 79.3176 50.542C79.1828 50.319 79.0686 50.1094 78.9432 49.8821C78.787 49.6051 78.649 49.3248 78.2881 48.9888L78.2173 48.9279L78.1244 48.8627C78.0829 48.8342 78.0355 48.8065 77.9816 48.7793C77.666 47.4875 77.7609 46.2403 77.9398 45.6476C78.3317 46.1816 78.9726 47.2612 79.5537 48.2391C80.755 50.2611 82.2502 52.778 83.7755 54.5737C84.0981 54.9535 84.4081 55.3115 84.7048 55.6542C86.9919 58.2968 88.3722 59.8916 89.0604 63.7607C89.3302 65.2796 89.4575 67.2132 89.5081 69.1052C89.191 67.3235 88.8534 65.5455 88.3859 63.7489Z" fill="#3D3D3D"/>
<path id="Vector_14" d="M54.2306 104.445C53.5811 103.081 52.9801 101.698 52.3906 100.307C52.1009 99.6092 51.8082 98.9122 51.5347 98.2044C51.2406 97.5057 50.9844 96.79 50.698 96.0836L49.8608 93.9454C49.5778 93.2303 49.3127 92.5071 48.9794 91.7969C49.025 92.582 49.1221 93.359 49.2311 94.1359C49.3787 94.9012 49.5036 95.6777 49.7006 96.4333C49.896 97.1893 50.0936 97.9469 50.3498 98.6841C50.4734 99.0543 50.5955 99.4251 50.7326 99.7907L51.1639 100.878C51.77 102.315 52.4788 103.708 53.3225 105.011C54.1774 106.3 55.128 107.55 56.3284 108.505C55.941 107.831 55.5767 107.165 55.2358 106.483C54.8788 105.814 54.5604 105.124 54.2306 104.445Z" fill="#3D3D3D"/>
</g>
<defs>
<radialGradient id="paint0_radial_6_364" cx="0" cy="0" r="1" gradientUnits="userSpaceOnUse" gradientTransform="translate(77.1035 44.2132) scale(12.7032 13.3918)">
<stop stop-color="#F46E6D"/>
<stop offset="0.375" stop-color="#FF567F" stop-opacity="0.77"/>
<stop offset="1" stop-color="#FDC8D2" stop-opacity="0"/>
</radialGradient>
<radialGradient id="paint1_radial_6_364" cx="0" cy="0" r="1" gradientUnits="userSpaceOnUse" gradientTransform="translate(33.9444 45.264) scale(12.7032 13.3918)">
<stop stop-color="#F46E6D"/>
<stop offset="0.375" stop-color="#FF567F" stop-opacity="0.77"/>
<stop offset="1" stop-color="#FDC8D2" stop-opacity="0"/>
</radialGradient>
<clipPath id="clip0_6_364">
<rect width="113.793" height="119.962" fill="white" transform="translate(0.109253 0.439453)"/>
</clipPath>
</defs>
</svg>
