<svg width="119" height="121" viewBox="0 0 119 121" fill="none" xmlns="http://www.w3.org/2000/svg">
<g id="Frame" clip-path="url(#clip0_6_387)">
<path id="Vector" d="M51.6135 114.421C66.3506 114.421 78.2973 102.328 78.2973 87.4112C78.2973 72.4941 66.3506 60.4014 51.6135 60.4014C36.8764 60.4014 24.9297 72.4941 24.9297 87.4112C24.9297 102.328 36.8764 114.421 51.6135 114.421Z" fill="url(#paint0_radial_6_387)"/>
<g id="Group 263">
<path id="Vector_2" d="M33.8822 6.5512C34.5144 6.71114 35.1483 6.86523 35.7885 6.99294C36.4287 7.12045 37.0669 7.25299 37.715 7.3378C39.0014 7.5493 40.3084 7.64076 41.6063 7.65869C39.0625 7.1134 36.5883 6.43396 34.1397 5.63809C31.6916 4.84161 29.2709 3.9688 26.8042 3.1262L25.8719 2.82001L24.9228 2.53559C24.2711 2.37182 23.6373 2.18408 22.892 2.1448C22.7985 2.13997 22.7145 2.12587 22.613 2.1295L22.3033 2.15024C22.1131 2.18307 21.9153 2.21167 21.7436 2.26727C21.3832 2.36154 21.0616 2.49791 20.7424 2.63811C20.1109 2.92516 19.528 3.2672 18.9639 3.63079C17.8399 4.36361 16.8005 5.19251 15.8073 6.07138C14.8164 6.95326 13.8751 7.88913 12.9917 8.88361C12.1078 9.87669 11.2789 10.9272 10.548 12.0592C9.82498 13.1923 9.16787 14.405 8.77763 15.7556C8.38439 17.0869 8.24609 18.4725 8.25424 19.8405L8.3042 20.8644C8.33087 21.2042 8.38499 21.5396 8.4246 21.8774C8.45902 22.2168 8.52649 22.5482 8.59435 22.8797C8.6642 23.2103 8.71495 23.5469 8.80888 23.87L9.06499 24.8476L9.37027 25.8064C9.46619 26.1285 9.59136 26.4379 9.70678 26.7517C9.8224 27.0656 9.9416 27.3776 10.0753 27.6822C10.5812 28.9159 11.1637 30.109 11.7796 31.275C12.0867 31.8585 12.4029 32.4358 12.7207 33.0079L13.6787 34.7237C14.0035 35.2972 14.344 35.8626 14.6964 36.4228C14.8727 36.7034 15.0532 36.9814 15.2397 37.2578C15.4301 37.538 15.6092 37.7998 15.8363 38.0921L15.9087 38.0335C17.107 47.5274 19.4639 56.5891 21.1621 63.1094C21.6882 65.1296 22.1425 66.8746 22.4828 68.3249C24.5664 77.2054 23.1851 87.4327 18.8777 95.0157C14.7314 102.316 12.5549 111.855 12.5332 111.951L13.5951 112.196C13.6162 112.102 15.7557 102.723 19.8218 95.5652C24.329 87.6299 25.7199 77.3515 23.5424 68.0703C23.1989 66.6069 22.7429 64.8558 22.215 62.8286C19.3016 51.6407 14.4254 32.9159 16.9175 17.5782L15.8431 17.3995C14.8916 23.2544 14.9931 29.5756 15.6461 35.7843C15.3233 35.2418 15.0138 34.6889 14.7066 34.1339L13.78 32.4161C13.4721 31.8424 13.1693 31.2699 12.8767 30.6934C12.2895 29.5422 11.7418 28.3763 11.2731 27.1838C10.8128 25.9903 10.3732 24.7871 10.0895 23.5507C10.0003 23.2449 9.95573 22.9325 9.89066 22.6233C9.82797 22.3135 9.76469 22.0033 9.73464 21.6907C9.69922 21.3784 9.64828 21.0668 9.6246 20.7542L9.58102 19.8165C9.57783 18.5702 9.70499 17.3262 10.057 16.1439C10.3939 14.977 10.9919 13.8643 11.6725 12.8046C12.3635 11.7484 13.1418 10.7384 13.9826 9.7802C14.8218 8.82117 15.7227 7.9121 16.6681 7.05781C17.6148 6.20634 18.6086 5.40442 19.6546 4.71027C20.1758 4.3632 20.7117 4.04031 21.2572 3.78348C21.5286 3.65919 21.805 3.53853 22.0707 3.46702C22.2066 3.41948 22.3316 3.40538 22.4582 3.37759L22.6323 3.36329C22.692 3.35885 22.7694 3.37113 22.8371 3.37415C23.3879 3.38926 24.0124 3.55223 24.6142 3.69706L25.5294 3.95731L26.4466 4.24375L30.133 5.45841C31.372 5.8496 32.6175 6.23273 33.8822 6.5512Z" fill="#3D3D3D"/>
<path id="Vector_3" d="M42.2673 64.9228C42.4995 67.1368 42.7831 69.347 43.1917 71.5339C43.5839 73.7296 44.1045 75.8735 44.4788 78.0467C44.6744 79.1323 44.844 80.2225 44.9787 81.3173C45.0492 81.865 45.0995 82.4139 45.1399 82.9648C45.1757 83.5151 45.208 84.0684 45.1588 84.6204C45.3487 83.5244 45.3172 82.4016 45.2796 81.2925C45.2338 80.1803 45.127 79.0729 45.0078 77.9672C44.8744 76.8637 44.721 75.7625 44.5435 74.6659C44.3719 73.5674 44.1815 72.4871 44.03 71.3935C43.401 67.0313 43.0567 62.6361 42.9481 58.2301C42.8969 56.0269 42.8828 53.8217 42.9353 51.6158L42.963 49.961L43.0231 48.3066L43.084 46.6519L43.1662 44.9973C43.3907 40.584 43.7435 36.1746 44.0929 31.7539C43.2969 36.1142 42.7075 40.5147 42.3218 44.9378L42.1757 46.5969L42.0726 48.2593L41.9738 49.9226L41.9075 51.588C41.8187 53.809 41.8295 56.0339 41.8599 58.2585C41.9421 60.4824 42.044 62.7069 42.2673 64.9228Z" fill="#3D3D3D"/>
<path id="Vector_4" d="M54.4268 52.4392C55.1792 53.3041 56.0226 54.0821 56.937 54.7549C57.8562 55.4188 58.8343 56.008 59.9038 56.3897C59.0747 55.6148 58.2678 54.8641 57.4875 54.0912C56.7064 53.3207 55.9591 52.5302 55.2461 51.7136C54.5271 50.9008 53.8851 50.0324 53.2684 49.1371C53.1229 48.9084 52.9767 48.6788 52.8222 48.4518C52.6694 48.2235 52.5516 47.9776 52.4101 47.7405L52.1962 47.3828C52.1275 47.2621 52.0772 47.134 52.0101 47.0109C51.8849 46.7617 51.7566 46.511 51.6133 46.2598C51.7114 47.3942 52.0252 48.5283 52.5283 49.5665C53.0379 50.5991 53.6686 51.5795 54.4268 52.4392Z" fill="#3D3D3D"/>
<path id="Vector_5" d="M118.984 78.3848C118.883 77.1043 118.711 75.8304 118.469 74.5694C118.226 73.31 117.919 72.0571 117.532 70.8362C117.151 69.6131 116.725 68.4059 116.238 67.2255C115.284 64.8548 114.134 62.5725 112.851 60.3714C111.569 58.1681 110.12 56.066 108.541 54.0675C107.756 53.0638 106.918 52.1027 106.059 51.1626L104.818 49.7782C104.433 49.2971 104.026 48.8332 103.66 48.3381C102.165 46.3786 100.908 44.2478 99.8529 41.9979C98.7802 39.7576 97.8777 37.4137 96.9621 35.0641L95.5796 31.5342L94.8666 29.7732C94.6244 29.1844 94.3635 28.5872 94.0861 28.0067C92.9755 25.6779 91.5808 23.4929 89.9556 21.5007C89.1442 20.503 88.2684 19.5587 87.3339 18.6746C86.4022 17.7876 85.4069 16.9648 84.3461 16.2229C83.2754 15.4935 82.152 14.8233 80.8698 14.3822C80.5465 14.277 80.2185 14.1783 79.8643 14.1215C79.6929 14.0849 79.5053 14.0738 79.3236 14.0554L78.8486 14.0343L76.9763 13.9592C75.1936 13.8889 73.4161 13.7843 71.6434 13.6375C71.5288 13.572 71.407 13.5005 71.2894 13.4266C71.1358 13.3359 70.9833 13.2431 70.8331 13.1429C70.5274 12.9542 70.2386 12.7352 69.9387 12.535C69.3543 12.11 68.7768 11.6727 68.2261 11.2011C67.9545 10.9612 67.6679 10.7372 67.4076 10.4844L66.6164 9.73487L65.8617 8.94604C65.6098 8.68256 65.3821 8.39734 65.1402 8.12379C65.0231 7.98379 64.8968 7.85104 64.7865 7.705L64.4572 7.26688L64.1227 6.83057C64.009 6.68654 63.8986 6.53989 63.8017 6.38419L63.1923 5.46484C63.0844 5.31477 62.9929 5.15503 62.9034 4.99408L62.6289 4.51346L62.3529 4.03183C62.2546 3.8739 62.1716 3.70852 62.094 3.54033C61.9322 3.20675 61.7736 2.87076 61.6052 2.53718C61.4259 2.20784 61.3051 1.85512 61.1617 1.50906C61.0248 1.16098 60.8791 0.814303 60.733 0.46582C60.8126 0.832835 60.8934 1.20146 60.9822 1.56888C61.0731 1.93549 61.1422 2.31157 61.2711 2.6671C61.5073 3.38622 61.7312 4.11724 62.0578 4.80535C62.6415 6.21459 63.4291 7.53801 64.3254 8.77784C65.2128 10.0288 66.2693 11.1562 67.4235 12.1642C67.7077 12.422 68.0192 12.6472 68.3157 12.8901C68.5338 13.0622 68.7622 13.2209 68.9905 13.3796C66.7119 13.1282 64.4468 12.78 62.2142 12.3102C59.7917 11.8181 57.4096 11.2674 54.9888 10.5358C55.2479 10.7173 55.5135 10.8911 55.7828 11.0603C56.0524 11.2279 56.3199 11.4104 56.6057 11.5454C56.8865 11.693 57.1736 11.8294 57.4604 11.9676L57.8914 12.1751C58.0359 12.2425 58.1848 12.2957 58.332 12.3551C59.5087 12.8343 60.7221 13.2169 61.9511 13.5128C64.414 14.0929 66.9119 14.4529 69.4098 14.7355C71.9089 15.0109 74.4159 15.1879 76.918 15.3019L78.7875 15.3881L79.2478 15.4115C79.3763 15.4278 79.5015 15.4315 79.6354 15.4623C79.8979 15.5044 80.1703 15.588 80.44 15.6772C81.5252 16.0555 82.5755 16.6793 83.5667 17.3662C85.547 18.7686 87.3166 20.507 88.8668 22.4108C90.421 24.3147 91.7566 26.4052 92.8177 28.6283C93.0841 29.1857 93.3283 29.744 93.5665 30.3213L94.2744 32.0678L95.6541 35.5853C96.5711 37.9356 97.4837 40.3065 98.5898 42.6159C99.6799 44.9298 101.018 47.1496 102.588 49.1825C102.974 49.6956 103.399 50.1766 103.804 50.6736L105.089 52.0878C105.93 52.9967 106.752 53.9261 107.523 54.8993C110.633 58.77 113.206 63.0977 115.14 67.6882C115.628 68.8345 116.054 70.0057 116.436 71.1883C116.824 72.3699 117.131 73.5709 117.38 74.789C117.627 76.0065 117.806 77.2388 117.917 78.4763C118.025 79.7123 118.072 80.9593 118.001 82.1819C117.983 82.4868 117.955 82.7894 117.913 83.0807C117.892 83.2255 117.867 83.3689 117.835 83.4964C117.82 83.5627 117.802 83.6171 117.786 83.6682C117.777 83.6735 117.768 83.6761 117.763 83.6789C117.718 83.6958 117.656 83.7138 117.594 83.7289C117.465 83.7593 117.324 83.7861 117.179 83.8064C116.888 83.8489 116.586 83.8787 116.282 83.9025C115.062 83.9922 113.816 84.0119 112.574 84.0224C110.086 84.0292 107.592 84.049 105.086 84.3815C107.571 84.8456 110.069 84.9826 112.575 84.9878C112.853 84.9887 113.131 84.9884 113.409 84.9874C113.177 85.0934 112.942 85.1961 112.705 85.293C111.84 85.6512 110.95 85.9539 110.045 86.2039C108.237 86.7178 106.372 87.0306 104.495 87.177C102.616 87.3307 100.729 87.2929 98.8403 87.1414C96.9518 86.9893 95.064 86.7178 93.1693 86.4446C91.2748 86.1691 89.3699 85.8864 87.4471 85.6949C85.5254 85.4969 83.5827 85.4072 81.6527 85.4185C79.7206 85.4252 77.7928 85.5223 75.8711 85.6792C73.9909 85.8335 72.127 86.0446 70.2498 86.336L68.4048 85.7648C67.7533 85.5551 67.1097 85.315 66.4844 85.0342C65.86 84.7526 65.2458 84.4403 64.6769 84.0536C64.1073 83.6703 63.5714 83.219 63.1607 82.6431C63.4707 83.2791 63.9348 83.8471 64.4612 84.331C64.9879 84.818 65.5684 85.2449 66.1742 85.6266C66.7807 86.0069 67.4104 86.3475 68.0546 86.6585C68.4002 86.8253 68.7479 86.9802 69.1047 87.118C65.9652 89.9842 64.7818 93.8282 64.0554 96.1951C63.9774 96.4499 63.9047 96.6862 63.8361 96.9007C63.1223 99.1236 62.776 99.5397 60.9428 101.122C58.7957 102.976 57.1167 109.247 56.9038 111.402C56.8077 112.376 56.5858 112.533 56.5892 112.533C56.5177 112.531 56.1949 112.409 55.6606 111.741C54.8787 110.763 54.6998 107.84 55.7539 104.639C56.5893 102.102 57.0234 101.043 57.1631 100.722C57.6664 100.474 58.172 100.23 58.6717 99.9752C59.4879 99.5492 60.2536 99.0643 61.0287 98.4673C60.0377 98.4089 59.1135 98.682 58.2441 99.0071C57.8075 99.1735 57.3874 99.3748 56.9655 99.572C56.5438 99.7692 56.1245 99.9714 55.7072 100.178C54.8723 100.592 54.0447 101.02 53.2242 101.485C52.8204 101.716 52.3884 101.987 52.0202 102.224C51.6345 102.465 51.2431 102.702 50.8481 102.937L48.4612 104.344C48.0626 104.583 47.6638 104.821 47.2648 105.07C46.8626 105.325 46.4744 105.562 46.0483 105.893C45.9848 105.943 45.8079 106.031 45.6228 106.095C45.4348 106.163 45.2278 106.223 45.0173 106.278C44.5944 106.39 44.1506 106.483 43.7044 106.575C42.8093 106.759 41.8961 106.923 40.9759 107.149C40.5154 107.262 40.0517 107.388 39.5819 107.552C39.0826 107.734 38.705 107.916 38.2814 108.071C37.8696 108.226 37.4507 108.368 37.072 108.444C36.9916 108.46 36.9098 108.471 36.8372 108.477C36.8555 108.415 36.878 108.349 36.907 108.283C36.9558 108.161 37.0565 108.01 37.1739 107.864C37.4095 107.568 37.7337 107.284 38.068 107.017C38.75 106.485 39.518 106.018 40.3056 105.601C41.0945 105.193 41.918 104.801 42.7261 104.547C42.8262 104.516 42.9241 104.489 43.0189 104.466C43.064 104.457 43.1134 104.444 43.1548 104.437L43.3176 104.409C43.6497 104.348 43.8825 104.248 44.1217 104.149C44.5828 103.944 45.0029 103.715 45.4141 103.476C47.0493 102.516 48.5625 101.447 50.0628 100.327L50.4612 100.038L50.2176 99.606L49.7647 98.8039L49.5553 98.433L49.1456 98.5464C47.3699 99.0375 45.5675 99.489 43.7673 99.9178L43.0913 100.077L42.3978 100.252C41.9391 100.38 41.4843 100.515 41.0364 100.664C40.1397 100.959 39.2599 101.287 38.3878 101.625C36.646 102.302 34.9337 103.037 33.2109 103.667C32.3483 103.981 31.4925 104.248 30.6215 104.41C30.1926 104.487 29.7576 104.537 29.3825 104.508C29.2 104.49 29.0406 104.447 28.9461 104.391C28.9248 104.377 28.9069 104.365 28.8898 104.351C28.9343 104.308 28.9809 104.264 29.0295 104.22C29.1897 104.075 29.3622 103.933 29.5385 103.793C29.8918 103.513 30.2609 103.244 30.636 102.982C31.3871 102.459 32.1642 101.965 32.9542 101.493C34.5357 100.55 36.1721 99.6944 37.8426 98.9153C41.1852 97.3592 44.6696 96.1103 48.236 95.1984L47.9695 94.1296C44.3363 95.0588 40.7912 96.3297 37.3872 97.9141C35.6858 98.7074 34.0187 99.5786 32.401 100.543C32.2072 100.482 31.9536 100.407 31.6348 100.331C31.5944 100.044 31.9823 98.9628 33.8929 97.7695C36.4678 96.1613 46.3579 92.9286 46.4576 92.896L47.1209 92.6799L46.1761 91.1411L45.8208 91.1961C42.381 91.7297 37.465 92.4827 35.566 92.7518C35.9785 92.283 36.8163 91.5625 38.387 90.7402C40.1683 89.8074 42.7066 89.1932 44.746 88.6999C46.7062 88.2257 47.8393 87.9375 48.3357 87.5239C49.3297 86.6954 55.5645 82.123 58.9058 80.1826C59.2246 79.9977 59.54 79.81 59.8562 79.622C62.9041 77.8095 66.056 75.9353 73.3192 75.7821C82.8133 75.5816 89.9172 74.3724 94.4479 72.186C94.5185 72.2537 94.5892 72.3202 94.6582 72.3776C94.8314 72.5355 95.0073 72.6699 95.1826 72.8099C95.5335 73.0862 95.8927 73.3413 96.2558 73.5872C96.9826 74.0787 97.7159 74.5521 98.4791 74.9741C98.8556 75.1939 99.2429 75.3935 99.6242 75.6026C100.015 75.7956 100.401 75.996 100.798 76.1749L101.39 76.4484L101.994 76.6984C102.393 76.8682 102.805 77.0134 103.213 77.1607C104.039 77.4334 104.881 77.6669 105.737 77.7881C104.93 77.4743 104.154 77.1154 103.393 76.7282C102.636 76.3298 101.89 75.9176 101.158 75.4779C99.6958 74.6008 98.2664 73.662 96.902 72.6586C96.5611 72.4078 96.2298 72.1462 95.9066 71.8849C95.7478 71.7523 95.584 71.6212 95.4409 71.4848C95.2843 71.3483 95.1631 71.2169 95.0471 71.087C94.8519 70.8477 94.6897 70.4837 94.5458 70.1042C94.3993 69.7259 94.271 69.3158 94.1408 68.9089C93.8845 68.0876 93.6306 67.2495 93.3585 66.4183C93.0861 65.5868 92.7906 64.7615 92.4891 63.9391C91.8746 62.2988 91.2093 60.6782 90.4776 59.0915C89.7225 57.4682 88.7685 55.9264 87.6207 54.5594L87.19 54.0466C87.0449 53.877 86.8849 53.7219 86.7329 53.5587L86.2714 53.0757C86.1174 52.9149 85.9486 52.7701 85.7874 52.6168L85.2963 52.1664C85.1285 52.0206 84.9548 51.883 84.7841 51.7414C84.6119 51.6016 84.4434 51.4571 84.2684 51.3216L83.7347 50.9258C83.0235 50.3986 82.2782 49.9208 81.5122 49.4805C80.8352 49.0885 80.1481 48.7511 79.408 48.4465C79.2456 47.251 79.1089 46.0194 79.0119 44.8011C78.9646 44.1426 78.9216 43.4845 78.8896 42.825C78.8659 42.4957 78.8709 42.1655 78.8567 41.8358L78.8382 41.3407L78.8366 40.8459C78.8279 40.1852 78.8456 39.5259 78.8571 38.8642C78.8631 38.5335 78.8925 38.2049 78.9013 37.8736C78.9136 37.5424 78.9272 37.2108 78.9616 36.8819C79.0281 35.5526 79.2257 34.2415 79.3863 32.8935C79.2555 33.2039 79.1307 33.5179 79.0084 33.8342L78.8299 34.311L78.681 34.7966C78.5871 35.122 78.4846 35.4471 78.397 35.7758L78.1737 36.7707C77.9099 38.1044 77.7308 39.4613 77.6824 40.8224C77.6384 41.5026 77.6408 42.1841 77.6488 42.8653C77.6591 43.2053 77.6627 43.5462 77.6784 43.8864L77.7453 44.9057C77.8569 46.2136 78.032 47.5003 78.3453 48.7972C77.556 50.876 75.6639 54.3153 71.1352 59.1165L70.9967 59.2634C70.1563 60.163 68.2094 64.798 67.5191 71.4373C67.294 73.5995 67.257 74.6057 67.2347 75.2066C67.2331 75.2485 67.2317 75.2845 67.2303 75.322C63.6665 76.08 61.4604 77.3905 59.3056 78.6714C58.9923 78.858 58.6799 79.0435 58.3647 79.2268C54.8226 81.2835 48.5776 85.8949 47.6443 86.6733C47.3181 86.9448 45.8823 87.2919 44.4937 87.6281C42.3966 88.1353 39.7868 88.7666 37.8873 89.7613C35.0537 91.245 33.9699 92.6782 34.1532 93.4405C34.2272 93.7479 34.4858 93.9543 34.7966 93.9543C35.1192 93.9543 40.3906 93.1496 43.8129 92.6222C40.6666 93.6983 35.2278 95.6414 33.3218 96.8316C31.0728 98.2362 30.4318 99.7005 30.5664 100.528C30.6267 100.9 30.838 101.184 31.1433 101.324C30.7648 101.567 30.3895 101.816 30.0187 102.075C29.6297 102.346 29.2454 102.626 28.8675 102.925C28.6784 103.076 28.4914 103.23 28.3049 103.398C28.2114 103.483 28.1186 103.57 28.0227 103.671C27.9745 103.722 27.9258 103.776 27.8719 103.844C27.844 103.881 27.8155 103.92 27.7815 103.977C27.7638 104.008 27.7439 104.046 27.7232 104.099C27.7103 104.137 27.7013 104.159 27.6904 104.216C27.6854 104.244 27.682 104.272 27.6802 104.301C27.6784 104.345 27.6812 104.389 27.6882 104.433C27.6951 104.479 27.7168 104.549 27.7435 104.601L27.7602 104.632L27.7706 104.651L27.7913 104.688L27.8432 104.778C27.8832 104.842 27.9258 104.913 27.9841 104.983C28.0922 105.124 28.2412 105.25 28.3928 105.34C28.7023 105.52 29.007 105.576 29.2846 105.606C29.8368 105.648 30.3309 105.579 30.8147 105.496C31.7709 105.318 32.6945 105.027 33.5779 104.706C35.3476 104.058 37.0553 103.324 38.7797 102.655C39.6408 102.32 40.5042 101.999 41.3725 101.713C41.8067 101.568 42.2427 101.439 42.679 101.318L43.3363 101.151L44.0163 100.991C45.6805 100.595 47.3351 100.18 48.9914 99.7295C48.38 100.147 47.7611 100.56 47.139 100.96C46.3709 101.458 45.5942 101.944 44.8079 102.381C44.4157 102.599 44.0179 102.803 43.6318 102.965C43.4447 103.041 43.2437 103.109 43.1211 103.127C43.11 103.131 43.0081 103.143 42.9428 103.154C42.8704 103.164 42.8077 103.179 42.7397 103.192C42.6101 103.221 42.4847 103.253 42.3639 103.288C41.4065 103.573 40.5436 103.955 39.6909 104.392C38.8438 104.834 38.0203 105.323 37.2366 105.923C36.8471 106.231 36.4633 106.554 36.1136 106.981C35.9403 107.195 35.7699 107.429 35.6386 107.737C35.5337 107.998 35.4257 108.268 35.4155 108.692C35.4171 108.903 35.4726 109.217 35.6975 109.472C35.9222 109.722 36.1942 109.811 36.3892 109.848C36.5932 109.886 36.7556 109.881 36.9084 109.871C37.0625 109.861 37.198 109.837 37.3327 109.813C37.8585 109.705 38.3146 109.543 38.7657 109.373C39.2087 109.21 39.6674 108.996 40.0358 108.863C40.437 108.723 40.864 108.604 41.2991 108.498C42.1709 108.286 43.0696 108.107 43.979 107.912C44.4348 107.812 44.8927 107.711 45.3605 107.583C45.595 107.518 45.831 107.448 46.0764 107.357C46.3221 107.26 46.5765 107.165 46.8795 106.93C47.1814 106.689 47.5771 106.432 47.9542 106.19L49.1215 105.464L51.4875 104.011C51.8821 103.765 52.2763 103.515 52.67 103.258C53.0739 102.986 53.4214 102.76 53.8162 102.524C54.428 102.161 55.0586 101.817 55.694 101.481C55.4578 102.119 55.1394 103.023 54.7217 104.291C53.6367 107.585 53.6759 111.01 54.815 112.435C55.46 113.241 56.0407 113.638 56.5796 113.638C56.6873 113.638 56.7935 113.622 56.8982 113.591C57.8102 113.315 57.9444 111.958 57.9885 111.513C58.225 109.121 59.9336 103.444 61.6504 101.961C63.5947 100.283 64.086 99.6914 64.8725 97.242C64.9428 97.0234 65.017 96.7823 65.0964 96.5226C65.5726 94.9708 66.2574 92.7506 67.5889 90.646C67.6172 90.8371 67.6502 91.0261 67.6882 91.2124C67.8339 91.9263 68.0289 92.6176 68.2508 93.2916C68.7023 94.6378 69.2406 95.9296 69.7965 97.2065C70.3509 98.484 70.925 99.745 71.4944 101.006C72.0589 102.269 72.6245 103.528 73.167 104.797C74.2492 107.335 75.2717 109.898 76.1696 112.509C77.0748 115.119 77.8671 117.771 78.5574 120.466C78.4635 119.777 78.3783 119.085 78.2527 118.401C78.1405 117.713 78.0159 117.028 77.8762 116.344C77.5913 114.981 77.2709 113.621 76.8943 112.278C76.1459 109.59 75.2327 106.948 74.202 104.36C73.1825 101.767 72.0448 99.2265 70.9397 96.6971C70.3963 95.4299 69.8524 94.1664 69.3994 92.8889C69.1716 92.2516 68.975 91.6094 68.8265 90.9668C68.6942 90.3791 68.6092 89.7905 68.6186 89.2232C69.1445 88.5847 69.7445 87.9763 70.4369 87.4228C72.257 87.1408 74.1123 86.9295 75.9596 86.7786C77.8565 86.6235 79.7586 86.5282 81.6581 86.5218C83.5596 86.5105 85.4491 86.5981 87.3397 86.7927C89.23 86.9808 91.1176 87.2606 93.0155 87.5366C94.9134 87.81 96.8218 88.0851 98.7533 88.2408C100.683 88.3961 102.638 88.4358 104.58 88.2767C106.522 88.1252 108.455 87.8015 110.337 87.2665C111.28 87.006 112.209 86.6906 113.117 86.3143C113.572 86.1288 114.02 85.9237 114.464 85.7062C114.911 85.4783 115.333 85.2568 115.785 84.9615L115.767 84.9349C115.962 84.9256 116.157 84.9181 116.354 84.9057C116.672 84.8845 116.992 84.8565 117.32 84.8122C117.484 84.7908 117.65 84.7624 117.826 84.7226C117.915 84.7014 118.004 84.6782 118.107 84.6416C118.162 84.6186 118.202 84.6095 118.269 84.5731C118.337 84.5336 118.384 84.5205 118.481 84.4317C118.575 84.3497 118.612 84.28 118.657 84.2059C118.691 84.1422 118.711 84.0919 118.735 84.0341C118.77 83.936 118.8 83.8399 118.822 83.7528C118.867 83.5742 118.898 83.4064 118.924 83.239C118.976 82.9054 119.009 82.5789 119.032 82.2532C119.119 80.9517 119.083 79.6659 118.984 78.3848ZM68.6016 71.5517C69.2693 65.1308 71.1511 60.701 71.7875 60.0208L71.922 59.8771C76.3069 55.2284 78.3011 51.782 79.2082 49.579C79.7829 49.8577 80.3616 50.1843 80.916 50.5199C81.6318 50.956 82.3281 51.4273 82.989 51.9436L83.485 52.331C83.6469 52.4635 83.803 52.6039 83.9622 52.7401C84.12 52.8785 84.2812 53.012 84.4356 53.1534L84.8877 53.5895C85.0374 53.7358 85.1956 53.8736 85.3387 54.0264L85.7669 54.4847C85.9076 54.6394 86.0573 54.7865 86.1912 54.9466L86.5892 55.4315C87.6445 56.7295 88.5339 58.148 89.2406 59.6705C89.953 61.2364 90.632 62.8157 91.2487 64.4195C91.8648 66.0261 92.4061 67.6471 92.9564 69.3037C93.0994 69.7201 93.2383 70.1368 93.4139 70.5641C93.513 70.8034 93.6171 71.0493 93.7526 71.2961C89.3916 73.3205 82.3463 74.4886 73.2969 74.6792C71.3899 74.7193 69.7563 74.8746 68.3272 75.1131C68.3503 74.5118 68.3963 73.524 68.6016 71.5517Z" fill="#3D3D3D"/>
</g>
</g>
<defs>
<radialGradient id="paint0_radial_6_387" cx="0" cy="0" r="1" gradientUnits="userSpaceOnUse" gradientTransform="translate(51.6136 87.4113) scale(26.6837 27.0097)">
<stop stop-color="#F46E6D"/>
<stop offset="0.375" stop-color="#FF567F" stop-opacity="0.77"/>
<stop offset="1" stop-color="#FDC8D2" stop-opacity="0"/>
</radialGradient>
<clipPath id="clip0_6_387">
<rect width="118.552" height="120" fill="white" transform="translate(0.351562 0.401367)"/>
</clipPath>
</defs>
</svg>
